<svg width="29" height="29" viewBox="0 0 29 29" fill="none" xmlns="http://www.w3.org/2000/svg">
<g clip-path="url(#clip0_22_875)">
<path d="M23.8766 2.38765H11.1424V6.36707H12.7342V3.97942H23.8766C24.3541 3.97942 24.6725 4.29777 24.6725 4.7753V13.53C24.6725 14.0076 24.3541 14.3259 23.8766 14.3259H13.5301V19.8971H9.31188L6.36711 22.2052V19.8971H3.97945C3.50192 19.8971 3.18357 19.5788 3.18357 19.1012V10.3465C3.18357 9.86897 3.50192 9.55061 3.97945 9.55061H14.326V7.95884H3.97945C2.62645 7.95884 1.5918 8.99349 1.5918 10.3465V19.1012C1.5918 20.4542 2.62645 21.4889 3.97945 21.4889H4.77534V25.5479L9.78941 21.4889H15.1218V15.9177H23.8766C25.2296 15.9177 26.2642 14.883 26.2642 13.53V4.7753C26.2642 3.4223 25.2296 2.38765 23.8766 2.38765Z" fill="black"/>
<path d="M4.93457 18.2258H6.84469L7.32222 16.9523H9.78947L10.267 18.2258H12.1771L9.47111 11.1424H7.56099L4.93457 18.2258ZM8.51605 13.1321L9.31194 15.5993H7.72017L8.51605 13.1321Z" fill="black"/>
<path d="M15.9177 13.53C16.7932 13.53 17.987 13.2913 19.1013 12.7342C20.2155 13.2913 21.4889 13.53 22.2848 13.53V11.9383C22.2848 11.9383 21.4889 11.9383 20.6134 11.6199C21.5685 10.6649 22.2848 9.23227 22.2848 7.16297V6.36708H19.8971V4.77531H18.3054V6.36708H15.9177V7.95885H20.6134C20.4543 9.39145 19.8176 10.2669 19.1013 10.824C18.6237 10.4261 18.1462 9.86898 17.8278 9.15268H16.1565C16.4748 10.1873 16.9524 10.9832 17.5891 11.6199C16.7932 11.9383 16.0769 11.9383 15.9177 11.9383V13.53Z" fill="black"/>
</g>
<defs>
<clipPath id="clip0_22_875">
<rect width="28.6519" height="28.6519" fill="white"/>
</clipPath>
</defs>
</svg>
