<svg width="93" height="93" viewBox="0 0 93 93" fill="none" xmlns="http://www.w3.org/2000/svg">
<path fill-rule="evenodd" clip-rule="evenodd" d="M63.3334 33.875C63.3334 38.3394 61.5599 42.6211 58.403 45.7779C55.2462 48.9348 50.9646 50.7083 46.5001 50.7083C42.0356 50.7083 37.754 48.9348 34.5971 45.7779C31.4403 42.6211 29.6667 38.3394 29.6667 33.875C29.6667 29.4105 31.4403 25.1288 34.5971 21.972C37.754 18.8151 42.0356 17.0416 46.5001 17.0416C50.9646 17.0416 55.2462 18.8151 58.403 21.972C61.5599 25.1288 63.3334 29.4105 63.3334 33.875ZM54.9167 33.875C54.9167 36.1072 54.03 38.248 52.4516 39.8264C50.8731 41.4049 48.7323 42.2916 46.5001 42.2916C44.2678 42.2916 42.127 41.4049 40.5486 39.8264C38.9702 38.248 38.0834 36.1072 38.0834 33.875C38.0834 31.6427 38.9702 29.5019 40.5486 27.9235C42.127 26.345 44.2678 25.4583 46.5001 25.4583C48.7323 25.4583 50.8731 26.345 52.4516 27.9235C54.03 29.5019 54.9167 31.6427 54.9167 33.875Z" fill="#0A8243"/>
<path fill-rule="evenodd" clip-rule="evenodd" d="M46.5002 0.208313C20.9345 0.208313 0.208496 20.9344 0.208496 46.5C0.208496 72.0656 20.9345 92.7916 46.5002 92.7916C72.0658 92.7916 92.7918 72.0656 92.7918 46.5C92.7918 20.9344 72.0658 0.208313 46.5002 0.208313ZM8.62516 46.5C8.62516 55.2954 11.6257 63.3922 16.6547 69.8226C20.1873 65.1855 24.7437 61.4275 29.9683 58.8419C35.1929 56.2562 40.9443 54.9129 46.7737 54.9166C52.5281 54.9099 58.208 56.2174 63.3803 58.7394C68.5526 61.2614 73.0807 64.9312 76.6192 69.4691C80.2655 64.6867 82.7206 59.1049 83.7813 53.1853C84.8421 47.2657 84.478 41.1787 82.7192 35.4278C80.9604 29.6769 77.8574 24.4275 73.667 20.1139C69.4766 15.8003 64.3193 12.5466 58.6218 10.6219C52.9242 8.69719 46.8503 8.15689 40.9025 9.0457C34.9547 9.93451 29.304 12.2269 24.4181 15.7331C19.5321 19.2393 15.5513 23.8586 12.805 29.2088C10.0587 34.5589 8.62592 40.4861 8.62516 46.5ZM46.5002 84.375C37.8054 84.3891 29.3729 81.3979 22.6305 75.9078C25.3441 72.0219 28.9564 68.8492 33.1601 66.6598C37.3637 64.4705 42.0341 63.3292 46.7737 63.3333C51.4541 63.3292 56.0679 64.442 60.2319 66.5792C64.3958 68.7165 67.9897 71.8165 70.7149 75.6217C63.9204 81.2903 55.3488 84.3888 46.5002 84.375Z" fill="#0A8243"/>
</svg>
