<svg width="38" height="38" viewBox="0 0 38 38" fill="none" xmlns="http://www.w3.org/2000/svg">
<path d="M24.1064 21.3847C24.1064 21.0754 24.2293 20.7787 24.4481 20.5599C24.6668 20.3412 24.9635 20.2183 25.2729 20.2183H28.3834C28.6927 20.2183 28.9894 20.3412 29.2082 20.5599C29.4269 20.7787 29.5498 21.0754 29.5498 21.3847C29.5498 21.6941 29.4269 21.9908 29.2082 22.2095C28.9894 22.4283 28.6927 22.5512 28.3834 22.5512H25.2729C24.9635 22.5512 24.6668 22.4283 24.4481 22.2095C24.2293 21.9908 24.1064 21.6941 24.1064 21.3847ZM4.66577 7.77628H4.68754C4.78318 6.92087 5.19073 6.13072 5.83228 5.55689C6.47382 4.98305 7.30436 4.6658 8.16509 4.66577H26.0505C26.51 4.66577 26.9651 4.75628 27.3896 4.93214C27.8142 5.108 28.2 5.36576 28.5249 5.6907C28.8498 6.01564 29.1076 6.4014 29.2835 6.82596C29.4593 7.25052 29.5498 7.70555 29.5498 8.16509V9.46684C30.657 9.72944 31.6432 10.358 32.3489 11.2507C33.0545 12.1435 33.4382 13.2482 33.438 14.3861V27.6058C33.438 28.9463 32.9054 30.232 31.9575 31.1799C31.0096 32.1278 29.7239 32.6603 28.3834 32.6603H9.72034C8.37979 32.6603 7.09414 32.1278 6.14622 31.1799C5.19831 30.232 4.66577 28.9463 4.66577 27.6058V7.77628ZM28.3834 11.6644H6.99865V27.6058C6.99865 29.1081 8.21797 30.3274 9.72034 30.3274H28.3834C29.1052 30.3274 29.7975 30.0407 30.3079 29.5303C30.8183 29.0199 31.1051 28.3276 31.1051 27.6058V14.3861C31.1051 13.6643 30.8183 12.972 30.3079 12.4616C29.7975 11.9512 29.1052 11.6644 28.3834 11.6644ZM27.2169 9.33153V8.16509C27.2169 7.85573 27.0941 7.55904 26.8753 7.34029C26.6566 7.12154 26.3599 6.99865 26.0505 6.99865H8.16509C7.85573 6.99865 7.55904 7.12154 7.34029 7.34029C7.12154 7.55904 6.99865 7.85573 6.99865 8.16509C6.99865 8.47445 7.12154 8.77114 7.34029 8.98989C7.55904 9.20864 7.85573 9.33153 8.16509 9.33153H27.2169Z" fill="black"/>
</svg>
