<svg width="25" height="26" viewBox="0 0 25 26" fill="none" xmlns="http://www.w3.org/2000/svg">
<path d="M12.2794 23.9317C6.35456 23.9317 1.53491 19.1121 1.53491 13.1873C1.53491 7.26251 6.35456 2.44286 12.2794 2.44286C18.2042 2.44286 23.0238 7.26251 23.0238 13.1873C23.0238 19.1121 18.2042 23.9317 12.2794 23.9317ZM12.2794 3.97778C7.19877 3.97778 3.06983 8.10671 3.06983 13.1873C3.06983 18.2679 7.19877 22.3968 12.2794 22.3968C17.3599 22.3968 21.4889 18.2679 21.4889 13.1873C21.4889 8.10671 17.3599 3.97778 12.2794 3.97778Z" fill="black"/>
<path d="M12.2793 7.81506C10.5756 7.81506 9.20947 9.18114 9.20947 10.8849H10.7444C10.7444 10.0407 11.4351 9.34998 12.2793 9.34998C13.1235 9.34998 13.8142 10.0407 13.8142 10.8849C13.8142 12.4198 11.5119 12.2356 11.5119 14.7222H13.0468C13.0468 13.0031 15.3492 12.8036 15.3492 10.8849C15.3492 9.18114 13.9831 7.81506 12.2793 7.81506Z" fill="black"/>
<path d="M12.2793 18.7437C12.8049 18.7437 13.2309 18.3176 13.2309 17.7921C13.2309 17.2665 12.8049 16.8404 12.2793 16.8404C11.7537 16.8404 11.3276 17.2665 11.3276 17.7921C11.3276 18.3176 11.7537 18.7437 12.2793 18.7437Z" fill="black"/>
<path d="M9.97693 11.6524C10.4008 11.6524 10.7444 11.3088 10.7444 10.8849C10.7444 10.4611 10.4008 10.1174 9.97693 10.1174C9.55308 10.1174 9.20947 10.4611 9.20947 10.8849C9.20947 11.3088 9.55308 11.6524 9.97693 11.6524Z" fill="black"/>
<path d="M12.2792 15.4897C12.703 15.4897 13.0466 15.1461 13.0466 14.7222C13.0466 14.2984 12.703 13.9548 12.2792 13.9548C11.8553 13.9548 11.5117 14.2984 11.5117 14.7222C11.5117 15.1461 11.8553 15.4897 12.2792 15.4897Z" fill="black"/>
</svg>
