<svg width="217" height="232" viewBox="0 0 217 232" fill="none" xmlns="http://www.w3.org/2000/svg">
<g clip-path="url(#clip0_34_319)">
<path d="M150.531 76.7662C150.531 77.9673 150.495 79.1542 150.418 80.3299L150.251 80.2394L143.217 97.6562L145.071 101.488C145.069 101.497 145.066 101.505 145.063 101.511C144.879 101.918 144.693 102.325 144.503 102.726C144.373 103.003 144.241 103.277 144.108 103.551C144.026 103.721 143.944 103.888 143.862 104.054C143.76 104.258 143.661 104.458 143.557 104.659C143.475 104.82 143.393 104.981 143.308 105.142C143.243 105.27 143.178 105.394 143.113 105.518C143.048 105.64 142.983 105.764 142.918 105.886C142.83 106.052 142.743 106.219 142.649 106.383C142.593 106.488 142.536 106.595 142.48 106.7C142.404 106.838 142.33 106.974 142.254 107.112C142.237 107.146 142.217 107.177 142.2 107.208C142.127 107.338 142.056 107.468 141.983 107.595C141.926 107.694 141.872 107.79 141.816 107.886C141.723 108.048 141.629 108.209 141.536 108.37C141.44 108.536 141.344 108.7 141.245 108.864C141.109 109.099 140.971 109.331 140.829 109.559C140.714 109.752 140.598 109.941 140.482 110.13C140.01 110.899 139.527 111.654 139.035 112.394C138.916 112.572 138.8 112.75 138.679 112.925C138.56 113.103 138.441 113.279 138.323 113.451C138.204 113.626 138.083 113.799 137.964 113.974C137.857 114.129 137.749 114.282 137.642 114.434C137.486 114.655 137.331 114.872 137.175 115.087C137.074 115.228 136.972 115.37 136.867 115.511C136.746 115.681 136.622 115.847 136.497 116.014C136.376 116.184 136.251 116.348 136.127 116.514C136.003 116.681 135.878 116.845 135.751 117.012C135.627 117.176 135.5 117.34 135.375 117.501C135.124 117.828 134.872 118.151 134.618 118.47C134.491 118.631 134.364 118.789 134.236 118.948C133.982 119.264 133.728 119.578 133.471 119.889C132.269 121.347 131.051 122.737 129.836 124.06H129.833L110.588 136.398L109.277 135.59L89.4947 123.396L88.678 124.017C88.3219 123.633 87.9686 123.237 87.6125 122.842C87.5023 122.72 87.3949 122.596 87.2847 122.472C86.7789 121.898 86.2758 121.316 85.7728 120.719C85.623 120.541 85.4732 120.363 85.3263 120.185C85.1087 119.923 84.8939 119.66 84.6763 119.397C84.5152 119.199 84.3541 118.998 84.1931 118.795C84.032 118.594 83.8709 118.391 83.7126 118.187C83.6957 118.165 83.6787 118.142 83.6589 118.122C83.4894 117.905 83.3198 117.69 83.1531 117.47C82.9807 117.246 82.8083 117.02 82.6387 116.794C82.4664 116.568 82.2968 116.342 82.1272 116.11C82.0227 115.969 81.9181 115.828 81.8164 115.686C81.6609 115.472 81.5055 115.26 81.3501 115.042C81.1946 114.827 81.042 114.61 80.8894 114.392C80.6973 114.118 80.5051 113.844 80.3158 113.564C80.2281 113.437 80.1405 113.307 80.0529 113.177C79.8834 112.931 79.7166 112.679 79.5527 112.431C79.5414 112.414 79.5301 112.394 79.5188 112.377C79.3492 112.123 79.1825 111.868 79.0158 111.608C78.8462 111.346 78.6766 111.08 78.5071 110.811C78.5043 110.809 78.5014 110.806 78.5014 110.803C78.3347 110.54 78.1708 110.272 78.0041 110.003C77.9193 109.868 77.8373 109.732 77.7554 109.596C77.6734 109.461 77.5915 109.322 77.5095 109.186C77.4275 109.051 77.3456 108.912 77.2636 108.774C76.9386 108.223 76.6193 107.669 76.3084 107.106C76.2293 106.965 76.153 106.824 76.0739 106.683C75.9976 106.541 75.9184 106.4 75.8421 106.256C75.7602 106.106 75.6811 105.956 75.6019 105.804C75.5285 105.668 75.4578 105.532 75.3872 105.4C75.3109 105.255 75.2374 105.111 75.1611 104.967C75.0876 104.823 75.0141 104.679 74.9406 104.535C74.7937 104.244 74.6496 103.953 74.5054 103.659C74.0363 102.704 73.587 101.731 73.1602 100.742C73.1094 100.626 73.0585 100.511 73.0105 100.395C72.8353 99.9849 72.6629 99.5695 72.4933 99.154L69.8594 78.6795L68.1017 79.7364C68.0932 79.5781 68.0847 79.4227 68.079 79.2673C68.0706 79.1062 68.0649 78.9451 68.0593 78.7812C68.0536 78.6427 68.0508 78.5042 68.0451 78.3658C68.0451 78.3347 68.0423 78.3008 68.0423 78.2697C68.0395 78.1538 68.0367 78.038 68.0338 77.9221C68.0254 77.5349 68.0225 77.1449 68.0225 76.7549C68.0225 76.6193 68.0225 76.4808 68.0254 76.348C68.0254 76.1982 68.0282 76.0456 68.0338 75.8958C68.0338 75.8478 68.0367 75.7997 68.0367 75.7545C68.048 75.3645 68.0677 74.9774 68.0932 74.593C68.096 74.5309 68.1017 74.4715 68.1045 74.4122C68.1497 73.782 68.2147 73.1546 68.2966 72.5329C68.3136 72.4057 68.3306 72.2785 68.3503 72.1542C68.3758 71.9733 68.404 71.7953 68.4323 71.6144C68.4521 71.4929 68.4719 71.3742 68.4945 71.2527C68.5199 71.1085 68.5453 70.9672 68.5708 70.8259C68.5736 70.8033 68.5792 70.7807 68.5821 70.7609C68.6075 70.6281 68.6329 70.4925 68.6612 70.3596C68.6838 70.2466 68.7092 70.1336 68.7319 70.0205C68.7488 69.9442 68.7658 69.8679 68.7827 69.7916C68.8082 69.6757 68.8336 69.5627 68.8619 69.4497C68.8901 69.3253 68.9212 69.1981 68.9523 69.0738C69.006 68.8618 69.0597 68.6499 69.1162 68.4379C69.1416 68.3447 69.1642 68.2514 69.1925 68.161C69.4186 67.3414 69.6786 66.536 69.9697 65.7447C69.9979 65.6628 70.029 65.5808 70.0601 65.4989C70.1025 65.3887 70.1449 65.2756 70.1873 65.1682C70.241 65.0269 70.2947 64.8884 70.3512 64.75C70.5236 64.3176 70.7072 63.8937 70.8966 63.4698C70.9531 63.3454 71.0096 63.2211 71.0662 63.0996C71.1142 62.995 71.1622 62.8933 71.2131 62.7887C71.2442 62.7209 71.2781 62.6531 71.3092 62.5881C71.3572 62.4863 71.4053 62.3874 71.4561 62.2885C71.5211 62.1529 71.5918 62.02 71.6596 61.8872C71.7274 61.7544 71.7981 61.6216 71.8687 61.4887C71.9507 61.3333 72.0355 61.1807 72.1203 61.0281C73.635 58.2868 75.5285 55.7406 77.7497 53.4374C77.8543 53.3272 77.9645 53.2169 78.0719 53.1067C78.1793 52.9965 78.2895 52.8891 78.3969 52.7817C78.8349 52.3494 79.2842 51.9255 79.7449 51.5129C79.8608 51.4083 79.9766 51.3066 80.0925 51.2048C80.2084 51.1031 80.327 51.0013 80.4429 50.8996C80.5616 50.7979 80.6803 50.699 80.799 50.5972C80.9177 50.4955 81.0392 50.3994 81.1579 50.2977C81.5394 49.9868 81.9294 49.6788 82.3251 49.382C82.4155 49.3142 82.5031 49.2464 82.5935 49.1814C83.5911 48.4381 84.6254 47.7401 85.6993 47.0845C85.7869 47.0308 85.8774 46.9771 85.9678 46.9234C86.1656 46.8019 86.3663 46.686 86.5669 46.5701C86.663 46.5136 86.7619 46.4571 86.858 46.4034C86.9258 46.3638 86.9965 46.3243 87.0643 46.2875C87.2197 46.1999 87.3752 46.1151 87.5278 46.0304C88.6243 45.4341 89.7547 44.8802 90.9162 44.3743C91.066 44.3093 91.2157 44.2443 91.3655 44.1821C91.4786 44.1341 91.5888 44.0889 91.7018 44.0408C91.7866 44.0041 91.8714 43.9702 91.9562 43.9363C92.1822 43.843 92.4083 43.7554 92.6372 43.665C92.7079 43.6367 92.7785 43.6085 92.8492 43.583C92.8916 43.5661 92.934 43.5519 92.9792 43.535C92.9792 43.535 101.186 44.25 109.271 44.5495C116.489 44.8123 123.608 44.7445 124.69 43.535C124.764 43.453 124.837 43.3739 124.913 43.2948C139.948 48.6953 150.531 61.647 150.531 76.7662Z" fill="#0A8243"/>
<path d="M150.531 76.7663C150.531 77.9673 150.494 79.1542 150.418 80.3299C150.396 80.6888 150.37 81.0477 150.342 81.4038C150.322 81.6468 150.302 81.887 150.277 82.1272C150.235 82.5794 150.186 83.0344 150.133 83.4837C150.119 83.6222 150.102 83.7578 150.082 83.8963C150.073 83.9811 150.062 84.0659 150.051 84.1507C150.037 84.2609 150.023 84.3683 150.006 84.4785C149.983 84.648 149.958 84.8176 149.935 84.9872C149.901 85.2217 149.867 85.4535 149.83 85.6824C149.83 85.6993 149.828 85.7135 149.822 85.7304C149.799 85.8858 149.774 86.0413 149.746 86.1939C149.723 86.3352 149.698 86.4765 149.672 86.6178C149.65 86.745 149.627 86.8721 149.604 87.0021C149.599 87.0445 149.59 87.0897 149.582 87.1321C149.545 87.3469 149.503 87.5588 149.46 87.7708C149.46 87.7821 149.457 87.7934 149.452 87.8075C149.418 87.9884 149.381 88.1664 149.344 88.3473C149.333 88.4151 149.316 88.483 149.302 88.5508C149.271 88.709 149.237 88.8645 149.2 89.0199C149.186 89.0906 149.172 89.1612 149.152 89.2347C149.118 89.3845 149.087 89.5342 149.05 89.684C149.036 89.7519 149.022 89.8197 149.002 89.8875C148.954 90.1023 148.901 90.3171 148.85 90.5318C148.793 90.7579 148.737 90.984 148.68 91.2101C148.516 91.8572 148.338 92.4959 148.155 93.1318C148.107 93.3013 148.056 93.4681 148.005 93.6376C147.993 93.68 147.979 93.7224 147.968 93.762C147.923 93.9089 147.878 94.0531 147.832 94.2C147.81 94.2735 147.787 94.3441 147.765 94.4176C147.714 94.5815 147.66 94.7454 147.606 94.9093C147.598 94.9376 147.589 94.963 147.581 94.9885C147.533 95.1383 147.485 95.288 147.434 95.4378C147.406 95.5282 147.375 95.6159 147.343 95.7063C147.31 95.8052 147.278 95.9041 147.242 96.0002C147.205 96.1104 147.165 96.2178 147.129 96.328C147.092 96.4382 147.052 96.5484 147.013 96.6587C146.92 96.9215 146.823 97.1815 146.727 97.4415C146.662 97.6223 146.595 97.8004 146.524 97.9812C146.448 98.1791 146.371 98.3769 146.295 98.5747C146.219 98.7725 146.14 98.9675 146.06 99.1625C145.981 99.3603 145.902 99.5553 145.82 99.7475C145.738 99.9425 145.659 100.135 145.574 100.33C145.41 100.717 145.244 101.101 145.071 101.483C145.069 101.491 145.066 101.5 145.063 101.505C144.879 101.912 144.693 102.319 144.503 102.72C144.373 102.997 144.24 103.272 144.108 103.546C144.026 103.715 143.944 103.882 143.862 104.049C143.76 104.252 143.661 104.453 143.557 104.653C143.475 104.815 143.393 104.976 143.308 105.137C143.243 105.264 143.178 105.388 143.113 105.513C143.048 105.634 142.983 105.758 142.918 105.88C142.83 106.047 142.743 106.213 142.649 106.377C142.593 106.482 142.536 106.589 142.48 106.694C142.404 106.832 142.33 106.968 142.254 107.106C142.237 107.14 142.217 107.171 142.2 107.203C142.127 107.333 142.056 107.463 141.982 107.59C141.926 107.689 141.872 107.785 141.816 107.881C141.723 108.042 141.629 108.203 141.536 108.364C141.44 108.531 141.344 108.695 141.245 108.859C141.109 109.093 140.971 109.325 140.829 109.554C140.714 109.746 140.598 109.935 140.482 110.125C140.01 110.893 139.527 111.648 139.035 112.388C138.916 112.566 138.8 112.744 138.679 112.92C138.56 113.098 138.441 113.273 138.323 113.445C138.204 113.62 138.083 113.793 137.964 113.968C137.856 114.124 137.749 114.276 137.642 114.429C137.486 114.649 137.331 114.867 137.175 115.082C137.074 115.223 136.972 115.364 136.867 115.505C136.746 115.675 136.622 115.842 136.497 116.008C136.376 116.178 136.251 116.342 136.127 116.509C136.003 116.675 135.878 116.839 135.751 117.006C135.627 117.17 135.5 117.334 135.375 117.495C135.124 117.823 134.872 118.145 134.618 118.464C134.491 118.625 134.364 118.784 134.236 118.942C133.982 119.258 133.728 119.572 133.471 119.883C132.269 121.341 131.051 122.732 129.836 124.054H129.833C119.544 135.231 109.274 141.471 109.274 141.471C109.274 141.471 109.263 141.463 109.24 141.451C109.164 141.403 108.952 141.273 108.627 141.061C108.582 141.033 108.536 141.005 108.488 140.971C107.98 140.64 107.236 140.143 106.31 139.493C106.222 139.431 106.131 139.368 106.038 139.303C105.945 139.238 105.852 139.171 105.758 139.106C105.699 139.063 105.64 139.021 105.578 138.976C105.566 138.967 105.552 138.959 105.541 138.95C105.521 138.939 105.504 138.925 105.487 138.911C105.456 138.888 105.425 138.865 105.394 138.846C105.388 138.843 105.383 138.837 105.374 138.831C105.255 138.747 105.137 138.659 105.015 138.571C104.911 138.495 104.809 138.422 104.702 138.343C104.569 138.246 104.436 138.145 104.297 138.046C104.23 137.995 104.162 137.944 104.091 137.893C103.953 137.789 103.811 137.684 103.667 137.577C103.597 137.523 103.523 137.469 103.45 137.413C103.305 137.303 103.159 137.19 103.009 137.077C102.845 136.952 102.678 136.822 102.509 136.692C102.339 136.559 102.169 136.427 101.994 136.291C101.647 136.02 101.291 135.737 100.926 135.443C100.793 135.336 100.66 135.228 100.525 135.121C100.121 134.793 99.7079 134.454 99.2869 134.104C99.1908 134.024 99.0947 133.942 98.9986 133.863C98.8064 133.702 98.6114 133.538 98.4164 133.372C98.1112 133.112 97.8032 132.846 97.4923 132.575C97.4047 132.498 97.3143 132.419 97.2267 132.343C94.6946 130.127 91.9533 127.533 89.1979 124.583C89.0227 124.393 88.8475 124.207 88.6723 124.015C88.3162 123.63 87.963 123.235 87.6069 122.839C87.4967 122.717 87.3893 122.593 87.2791 122.469C86.7732 121.895 86.2702 121.313 85.7671 120.717C85.6174 120.539 85.4676 120.361 85.3206 120.183C85.103 119.92 84.8882 119.657 84.6706 119.394C84.5095 119.196 84.3485 118.996 84.1874 118.792C84.0263 118.591 83.8652 118.388 83.707 118.185C83.69 118.162 83.673 118.139 83.6533 118.12C83.4837 117.902 83.3141 117.687 83.1474 117.467C82.975 117.243 82.8026 117.017 82.6331 116.791C82.4607 116.565 82.2911 116.339 82.1216 116.107C82.017 115.966 81.9124 115.825 81.8107 115.683C81.6553 115.469 81.4998 115.257 81.3444 115.039C81.189 114.824 81.0364 114.607 80.8838 114.389C80.6916 114.115 80.4994 113.841 80.3101 113.561C80.2225 113.434 80.1349 113.304 80.0473 113.174C79.8777 112.928 79.711 112.677 79.547 112.428C79.5357 112.411 79.5244 112.391 79.5131 112.374C79.3436 112.12 79.1768 111.866 79.0101 111.606C78.8405 111.343 78.671 111.077 78.5014 110.809C78.4986 110.806 78.4958 110.803 78.4958 110.8C78.329 110.537 78.1651 110.269 77.9984 110C77.9136 109.865 77.8316 109.729 77.7497 109.593C77.6677 109.458 77.5858 109.319 77.5038 109.184C77.4219 109.048 77.3399 108.91 77.258 108.771C76.933 108.22 76.6136 107.666 76.3028 107.104C76.2236 106.962 76.1473 106.821 76.0682 106.68C75.9919 106.538 75.9128 106.397 75.8365 106.253C75.7545 106.103 75.6754 105.953 75.5963 105.801C75.5228 105.665 75.4521 105.53 75.3815 105.397C75.3052 105.253 75.2317 105.108 75.1554 104.964C75.0819 104.82 75.0084 104.676 74.935 104.532C74.788 104.241 74.6439 103.95 74.4998 103.656C74.0306 102.701 73.5813 101.729 73.1546 100.739C73.1037 100.624 73.0528 100.508 73.0048 100.392C72.8296 99.9821 72.6572 99.5666 72.4876 99.1512C72.4226 98.9873 72.3548 98.8206 72.2898 98.6538C72.1965 98.4193 72.1061 98.1847 72.0157 97.9473C71.9535 97.7862 71.8942 97.6223 71.832 97.4584C71.7952 97.3652 71.7613 97.2691 71.7274 97.1758C71.6935 97.0826 71.6568 96.9865 71.6229 96.8904C71.5889 96.7943 71.555 96.701 71.5183 96.605C71.4844 96.5117 71.4505 96.4156 71.4166 96.3195C71.3487 96.1274 71.2837 95.9352 71.2187 95.743C70.9927 95.0761 70.7751 94.4063 70.5716 93.7281C70.5094 93.5274 70.4501 93.3268 70.3935 93.1261C70.3285 92.9113 70.2692 92.6937 70.207 92.479C70.1646 92.3264 70.1222 92.1738 70.0798 92.0211C70.0375 91.8685 69.9979 91.7159 69.9583 91.5605C69.9103 91.3825 69.8651 91.2072 69.8199 91.0292C69.769 90.8286 69.7181 90.6279 69.6701 90.4273C69.6249 90.2436 69.5825 90.0571 69.5373 89.8705C69.5316 89.8479 69.5259 89.8225 69.5203 89.7971C69.4751 89.6021 69.4299 89.4071 69.3875 89.2121C69.331 88.9634 69.2773 88.7147 69.2264 88.466C69.1981 88.3219 69.167 88.1778 69.1388 88.0336C69.0907 87.7934 69.0427 87.5504 68.9975 87.3102C68.9607 87.1236 68.9297 86.9371 68.8957 86.7506C68.876 86.6489 68.859 86.5471 68.842 86.4454C68.7855 86.1091 68.729 85.7728 68.6781 85.4337C68.6584 85.3065 68.6386 85.1793 68.6216 85.055C68.6188 85.0465 68.6188 85.0352 68.6188 85.0267C68.5962 84.8769 68.5736 84.7272 68.5538 84.5774C68.534 84.4361 68.5142 84.292 68.4973 84.1507C68.4775 83.9924 68.4549 83.8313 68.4379 83.6731C68.4351 83.6504 68.4323 83.6278 68.4294 83.6052C68.4068 83.43 68.3871 83.252 68.3673 83.0739C68.3588 82.992 68.3475 82.9129 68.339 82.8281C68.3221 82.6642 68.3051 82.5003 68.2881 82.3335C68.2684 82.1414 68.2514 81.9492 68.2345 81.7542C68.2231 81.6327 68.2118 81.5083 68.2034 81.384L68.1808 81.1042C68.1666 80.9318 68.1525 80.7566 68.144 80.5842C68.1412 80.5192 68.1355 80.4514 68.1327 80.3864C68.1214 80.1942 68.1073 79.9992 68.0988 79.8071C68.0988 79.7816 68.096 79.759 68.096 79.7336C68.0875 79.5753 68.079 79.4199 68.0734 79.2645C68.0649 79.1034 68.0592 78.9423 68.0536 78.7784C68.0479 78.6399 68.0451 78.5014 68.0395 78.363C68.0395 78.3319 68.0366 78.298 68.0366 78.2669C68.0338 78.151 68.031 78.0351 68.0282 77.9193C68.0197 77.5321 68.0168 77.1421 68.0168 76.7521C68.0168 76.6165 68.0168 76.478 68.0197 76.3452C68.0197 76.1954 68.0225 76.0428 68.0282 75.893C68.0282 75.845 68.031 75.7969 68.031 75.7517C68.0423 75.3617 68.0621 74.9745 68.0875 74.5902C68.0903 74.528 68.096 74.4687 68.0988 74.4093C68.144 73.7791 68.209 73.1518 68.291 72.53C68.3079 72.4029 68.3249 72.2757 68.3447 72.1513C68.3701 71.9705 68.3984 71.7924 68.4266 71.6116C68.4464 71.4901 68.4662 71.3714 68.4888 71.2498C68.5142 71.1057 68.5397 70.9644 68.5651 70.8231C68.5679 70.8005 68.5736 70.7779 68.5764 70.7581C68.6018 70.6253 68.6273 70.4896 68.6555 70.3568C68.6781 70.2438 68.7036 70.1307 68.7262 70.0177C68.7431 69.9414 68.7601 69.8651 68.777 69.7888C68.8025 69.6729 68.8279 69.5599 68.8562 69.4468C68.8844 69.3225 68.9155 69.1953 68.9466 69.071C69.0003 68.859 69.054 68.6471 69.1105 68.4351C69.136 68.3419 69.1586 68.2486 69.1868 68.1582C69.4129 67.3386 69.6729 66.5332 69.964 65.7419C69.9922 65.66 70.0233 65.578 70.0544 65.496C70.0968 65.3858 70.1392 65.2728 70.1816 65.1654C70.2353 65.0241 70.289 64.8856 70.3455 64.7471C70.5179 64.3148 70.7016 63.8909 70.8909 63.467C70.9474 63.3426 71.004 63.2183 71.0605 63.0967C71.1085 62.9922 71.1566 62.8904 71.2074 62.7859C71.2385 62.7181 71.2724 62.6502 71.3035 62.5852C71.3516 62.4835 71.3996 62.3846 71.4505 62.2857C71.5155 62.15 71.5861 62.0172 71.6539 61.8844C71.7218 61.7516 71.7924 61.6187 71.8631 61.4859C71.945 61.3305 72.0298 61.1779 72.1146 61.0253C73.6293 58.284 75.5228 55.7378 77.744 53.4346C77.8486 53.3243 77.9588 53.2141 78.0662 53.1039C78.1736 52.9937 78.2838 52.8863 78.3912 52.7789C78.8292 52.3465 79.2786 51.9226 79.7392 51.51C79.8551 51.4055 79.971 51.3037 80.0868 51.202C80.2027 51.1003 80.3214 50.9985 80.4372 50.8968C80.5559 50.795 80.6746 50.6961 80.7933 50.5944C80.912 50.4927 81.0335 50.3966 81.1522 50.2948C81.5337 49.984 81.9237 49.6759 82.3194 49.3792C82.4098 49.3114 82.4974 49.2436 82.5878 49.1786C83.5854 48.4353 84.6198 47.7373 85.6937 47.0816C85.7813 47.028 85.8717 46.9743 85.9621 46.9206C86.16 46.799 86.3606 46.6832 86.5612 46.5673C86.6573 46.5108 86.7562 46.4543 86.8523 46.4006C86.9202 46.361 86.9908 46.3214 87.0586 46.2847C87.2141 46.1971 87.3695 46.1123 87.5221 46.0275C88.6186 45.4312 89.749 44.8773 90.9105 44.3715C91.0603 44.3065 91.2101 44.2415 91.3598 44.1793C91.4729 44.1313 91.5831 44.0861 91.6961 44.038C91.7809 44.0013 91.8657 43.9674 91.9505 43.9335C92.1766 43.8402 92.4026 43.7526 92.6316 43.6622C92.7022 43.6339 92.7729 43.6056 92.8435 43.5802C92.8859 43.5632 92.9283 43.5491 92.9735 43.5322C93.2081 43.4445 93.4455 43.3569 93.6828 43.2722C93.81 43.2269 93.9372 43.1817 94.0644 43.1365C94.2085 43.0885 94.3554 43.0376 94.4996 42.9896C94.6409 42.9415 94.7765 42.8963 94.9178 42.8511C95.0676 42.803 95.2202 42.755 95.37 42.707C95.4604 42.6787 95.5508 42.6504 95.6413 42.6222C96.6728 42.3057 97.7212 42.0259 98.7895 41.78C98.8856 41.7574 98.9788 41.7348 99.0749 41.715C99.6034 41.5963 100.135 41.4889 100.669 41.39C100.799 41.3646 100.926 41.342 101.056 41.3194C101.093 41.3109 101.132 41.3052 101.172 41.2996C101.333 41.2713 101.494 41.2431 101.655 41.2176C101.7 41.2092 101.748 41.2035 101.794 41.195C101.977 41.1668 102.161 41.1357 102.347 41.1102C102.52 41.0848 102.692 41.0594 102.865 41.0368C102.949 41.0255 103.037 41.0142 103.125 41.0029C103.212 40.9916 103.297 40.9802 103.385 40.9689C103.45 40.9605 103.515 40.952 103.58 40.9435C103.673 40.9322 103.763 40.9209 103.857 40.9124C104.046 40.8898 104.238 40.87 104.43 40.8503C104.605 40.8333 104.781 40.8163 104.956 40.7994C105.131 40.7824 105.306 40.7683 105.484 40.7542C105.66 40.74 105.838 40.7259 106.013 40.7146C106.191 40.7033 106.369 40.692 106.544 40.6807C106.555 40.6807 106.57 40.6807 106.581 40.6779C106.923 40.6581 107.268 40.644 107.612 40.6298C107.785 40.6242 107.96 40.6185 108.132 40.6157C108.299 40.6129 108.463 40.61 108.63 40.6072C108.678 40.6072 108.723 40.6044 108.771 40.6072C108.924 40.6044 109.076 40.6044 109.229 40.6044H109.263C114.799 40.6044 120.081 41.5596 124.905 43.2948C139.948 48.6953 150.531 61.647 150.531 76.7663Z" fill="white"/>
<path d="M109.274 40.6044V141.485C109.274 141.485 109.263 141.477 109.24 141.465C109.164 141.417 108.952 141.287 108.627 141.075C108.582 141.047 108.536 141.019 108.488 140.985C107.98 140.654 107.236 140.157 106.31 139.507C106.222 139.445 106.132 139.383 106.038 139.318C105.945 139.253 105.852 139.185 105.758 139.12C105.699 139.077 105.64 139.035 105.578 138.99C105.566 138.981 105.552 138.973 105.541 138.964C105.521 138.953 105.504 138.939 105.487 138.925C105.456 138.902 105.425 138.88 105.394 138.86C105.388 138.857 105.383 138.851 105.374 138.846C105.255 138.761 105.137 138.673 105.015 138.586C104.911 138.509 104.809 138.436 104.702 138.357C104.569 138.261 104.436 138.159 104.297 138.06C104.23 138.009 104.162 137.958 104.091 137.907C103.953 137.803 103.811 137.698 103.667 137.591C103.597 137.537 103.523 137.483 103.45 137.427C103.305 137.317 103.159 137.204 103.009 137.091C102.845 136.966 102.678 136.836 102.509 136.706C102.339 136.573 102.169 136.441 101.994 136.305C101.647 136.034 101.291 135.751 100.926 135.457C100.793 135.35 100.66 135.242 100.525 135.135C100.121 134.807 99.7079 134.468 99.2869 134.118C99.1908 134.039 99.0947 133.957 98.9986 133.877C98.8064 133.716 98.6114 133.552 98.4164 133.386C98.1112 133.126 97.8032 132.86 97.4923 132.589C97.4047 132.512 97.3143 132.433 97.2267 132.357C94.6946 130.141 91.9533 127.547 89.1979 124.597C89.0227 124.407 88.8475 124.221 88.6723 124.029C88.3162 123.644 87.963 123.249 87.6069 122.853C87.4967 122.732 87.3893 122.607 87.2791 122.483C86.7732 121.909 86.2702 121.327 85.7671 120.731C85.6174 120.553 85.4676 120.375 85.3206 120.197C85.103 119.934 84.8882 119.671 84.6706 119.408C84.5096 119.21 84.3485 119.01 84.1874 118.806C84.0263 118.606 83.8652 118.402 83.707 118.199C83.69 118.176 83.6731 118.153 83.6533 118.134C83.4837 117.916 83.3141 117.701 83.1474 117.481C82.975 117.258 82.8026 117.032 82.6331 116.805C82.4607 116.579 82.2911 116.353 82.1216 116.122C82.017 115.98 81.9124 115.839 81.8107 115.698C81.6553 115.483 81.4998 115.271 81.3444 115.053C81.189 114.839 81.0364 114.621 80.8838 114.403C80.6916 114.129 80.4994 113.855 80.3101 113.575C80.2225 113.448 80.1349 113.318 80.0473 113.188C79.8777 112.942 79.711 112.691 79.547 112.442C79.5357 112.425 79.5244 112.405 79.5131 112.388C79.3436 112.134 79.1768 111.88 79.0101 111.62C78.8405 111.357 78.671 111.091 78.5014 110.823C78.4986 110.82 78.4958 110.817 78.4958 110.814C78.329 110.551 78.1651 110.283 77.9984 110.014C77.9136 109.879 77.8316 109.743 77.7497 109.608C77.6677 109.472 77.5858 109.333 77.5038 109.198C77.4219 109.062 77.3399 108.924 77.258 108.785C76.933 108.234 76.6136 107.68 76.3028 107.118C76.2236 106.977 76.1473 106.835 76.0682 106.694C75.9919 106.553 75.9128 106.411 75.8365 106.267C75.7545 106.117 75.6754 105.968 75.5963 105.815C75.5228 105.679 75.4521 105.544 75.3815 105.411C75.3052 105.267 75.2317 105.123 75.1554 104.979C75.0819 104.834 75.0084 104.69 74.935 104.546C74.788 104.255 74.6439 103.964 74.4998 103.67C74.0306 102.715 73.5813 101.743 73.1546 100.754C73.1037 100.638 73.0528 100.522 73.0048 100.406C72.8296 99.9962 72.6572 99.5808 72.4876 99.1654C72.4226 99.0014 72.3548 98.8347 72.2898 98.668C72.1965 98.4334 72.1061 98.1989 72.0157 97.9615C71.9535 97.8004 71.8942 97.6365 71.832 97.4726C71.7952 97.3793 71.7613 97.2832 71.7274 97.19C71.6935 97.0967 71.6568 97.0006 71.6229 96.9045C71.5889 96.8084 71.555 96.7152 71.5183 96.6191C71.4844 96.5258 71.4505 96.4298 71.4166 96.3337C71.3487 96.1415 71.2837 95.9493 71.2187 95.7572C70.9927 95.0902 70.7751 94.4205 70.5716 93.7422C70.5094 93.5416 70.4501 93.3409 70.3935 93.1403C70.3285 92.9255 70.2692 92.7079 70.207 92.4931C70.1646 92.3405 70.1222 92.1879 70.0798 92.0353C70.0375 91.8827 69.9979 91.7301 69.9583 91.5746C69.9103 91.3966 69.8651 91.2214 69.8199 91.0434C69.769 90.8427 69.7181 90.6421 69.6701 90.4414C69.6249 90.2577 69.5825 90.0712 69.5373 89.8847C69.5316 89.8621 69.5259 89.8366 69.5203 89.8112C69.4751 89.6162 69.4299 89.4212 69.3875 89.2262C69.331 88.9775 69.2773 88.7288 69.2264 88.4801C69.1981 88.336 69.167 88.1919 69.1388 88.0478C69.0907 87.8075 69.0427 87.5645 68.9975 87.3243C68.9607 87.1378 68.9297 86.9513 68.8957 86.7647C68.876 86.663 68.859 86.5613 68.842 86.4595C68.7855 86.1232 68.729 85.7869 68.6781 85.4478C68.6584 85.3206 68.6386 85.1935 68.6216 85.0691C68.6188 85.0606 68.6188 85.0493 68.6188 85.0409C68.5962 84.8911 68.5736 84.7413 68.5538 84.5915C68.534 84.4502 68.5142 84.3061 68.4973 84.1648C68.4775 84.0065 68.4549 83.8455 68.4379 83.6872C68.4351 83.6646 68.4323 83.642 68.4294 83.6194C68.4068 83.4442 68.3871 83.2661 68.3673 83.0881C68.3588 83.0061 68.3475 82.927 68.339 82.8422C68.3221 82.6783 68.3051 82.5144 68.2881 82.3477C68.2684 82.1555 68.2514 81.9633 68.2345 81.7683C68.2231 81.6468 68.2118 81.5225 68.2034 81.3981L68.1808 81.1183C68.1666 80.9459 68.1525 80.7707 68.144 80.5984C68.1412 80.5334 68.1355 80.4655 68.1327 80.4005C68.1214 80.2084 68.1073 80.0134 68.0988 79.8212C68.0988 79.7958 68.096 79.7731 68.096 79.7477C68.0875 79.5895 68.079 79.434 68.0734 79.2786C68.0649 79.1175 68.0592 78.9564 68.0536 78.7925C68.0479 78.654 68.0451 78.5156 68.0395 78.3771C68.0395 78.346 68.0366 78.3121 68.0366 78.281C68.0338 78.1651 68.031 78.0493 68.0282 77.9334C68.0197 77.5462 68.0168 77.1562 68.0168 76.7663C68.0168 76.6306 68.0168 76.4921 68.0197 76.3593C68.0197 76.2095 68.0225 76.0569 68.0282 75.9071C68.0282 75.8591 68.031 75.8111 68.031 75.7658C68.0423 75.3758 68.0621 74.9887 68.0875 74.6043C68.0903 74.5422 68.096 74.4828 68.0988 74.4235C68.144 73.7933 68.209 73.1659 68.291 72.5442C68.3079 72.417 68.3249 72.2898 68.3447 72.1655C68.3701 71.9846 68.3984 71.8066 68.4266 71.6257C68.4464 71.5042 68.4662 71.3855 68.4888 71.264C68.5142 71.1198 68.5397 70.9785 68.5651 70.8372C68.5679 70.8146 68.5736 70.792 68.5764 70.7722C68.6018 70.6394 68.6273 70.5038 68.6555 70.3709C68.6781 70.2579 68.7036 70.1449 68.7262 70.0318C68.7431 69.9555 68.7601 69.8792 68.777 69.8029C68.8025 69.687 68.8279 69.574 68.8562 69.461C68.8844 69.3366 68.9155 69.2095 68.9466 69.0851C69.0003 68.8732 69.054 68.6612 69.1105 68.4493C69.136 68.356 69.1586 68.2627 69.1868 68.1723C69.4129 67.3527 69.6729 66.5473 69.964 65.756C69.9922 65.6741 70.0233 65.5921 70.0544 65.5102C70.0968 65.4 70.1392 65.2869 70.1816 65.1795C70.2353 65.0382 70.289 64.8998 70.3455 64.7613C70.5179 64.3289 70.7016 63.905 70.8909 63.4811C70.9474 63.3567 71.004 63.2324 71.0605 63.1109C71.1085 63.0063 71.1566 62.9046 71.2074 62.8C71.2385 62.7322 71.2724 62.6644 71.3035 62.5994C71.3516 62.4976 71.3996 62.3987 71.4505 62.2998C71.5155 62.1642 71.5861 62.0313 71.6539 61.8985C71.7218 61.7657 71.7924 61.6329 71.8631 61.5C71.945 61.3446 72.0298 61.192 72.1146 61.0394C73.6293 58.2982 75.5228 55.7519 77.744 53.4487C77.8486 53.3385 77.9588 53.2283 78.0662 53.118C78.1736 53.0078 78.2838 52.9004 78.3912 52.793C78.8292 52.3607 79.2786 51.9368 79.7392 51.5242C79.8551 51.4196 79.971 51.3179 80.0868 51.2161C80.2027 51.1144 80.3214 51.0126 80.4372 50.9109C80.5559 50.8092 80.6746 50.7103 80.7933 50.6085C80.912 50.5068 81.0335 50.4107 81.1522 50.309C81.5337 49.9981 81.9237 49.6901 82.3194 49.3933C82.4098 49.3255 82.4974 49.2577 82.5879 49.1927C83.5854 48.4494 84.6198 47.7514 85.6937 47.0958C85.7813 47.0421 85.8717 46.9884 85.9621 46.9347C86.16 46.8132 86.3606 46.6973 86.5612 46.5814C86.6573 46.5249 86.7562 46.4684 86.8523 46.4147C86.9202 46.3751 86.9908 46.3356 87.0586 46.2988C87.2141 46.2112 87.3695 46.1264 87.5221 46.0417C88.6186 45.4454 89.749 44.8915 90.9105 44.3856C91.0603 44.3206 91.2101 44.2556 91.3598 44.1934C91.4729 44.1454 91.5831 44.1002 91.6961 44.0521C91.7809 44.0154 91.8657 43.9815 91.9505 43.9476C92.1766 43.8543 92.4027 43.7667 92.6316 43.6763C92.7022 43.648 92.7729 43.6198 92.8435 43.5943C92.8859 43.5774 92.9283 43.5632 92.9735 43.5463C93.2081 43.4587 93.4455 43.3711 93.6828 43.2863C93.81 43.2411 93.9372 43.1959 94.0644 43.1506C94.2085 43.1026 94.3554 43.0517 94.4996 43.0037C94.6409 42.9556 94.7765 42.9104 94.9178 42.8652C95.0676 42.8172 95.2202 42.7691 95.37 42.7211C95.4604 42.6928 95.5508 42.6646 95.6413 42.6363C96.6728 42.3198 97.7212 42.04 98.7895 41.7941C98.8856 41.7715 98.9788 41.7489 99.0749 41.7291C99.6034 41.6105 100.135 41.5031 100.669 41.4042C100.799 41.3787 100.926 41.3561 101.056 41.3335C101.093 41.325 101.132 41.3194 101.172 41.3137C101.333 41.2855 101.494 41.2572 101.655 41.2318C101.7 41.2233 101.748 41.2176 101.794 41.2092C101.977 41.1809 102.161 41.1498 102.347 41.1244C102.52 41.0989 102.692 41.0735 102.865 41.0509C102.949 41.0396 103.037 41.0283 103.125 41.017C103.212 41.0057 103.297 40.9944 103.385 40.9831C103.45 40.9746 103.515 40.9661 103.58 40.9576C103.673 40.9463 103.763 40.935 103.857 40.9266C104.046 40.9039 104.238 40.8842 104.43 40.8644C104.605 40.8474 104.781 40.8305 104.956 40.8135C105.131 40.7966 105.306 40.7824 105.484 40.7683C105.66 40.7542 105.838 40.74 106.013 40.7287C106.191 40.7174 106.369 40.7061 106.544 40.6948C106.555 40.6948 106.57 40.6948 106.581 40.692C106.923 40.6722 107.268 40.6581 107.612 40.644C107.785 40.6383 107.96 40.6326 108.132 40.6298C108.299 40.627 108.463 40.6242 108.63 40.6213C108.678 40.6213 108.723 40.6185 108.771 40.6213C108.924 40.6185 109.076 40.6185 109.229 40.6185H109.274V40.6044Z" fill="white"/>
<path d="M109.274 107.813C123.608 107.813 135.228 96.1929 135.228 81.8587C135.228 67.5246 123.608 55.9045 109.274 55.9045C94.9399 55.9045 83.3198 67.5246 83.3198 81.8587C83.3198 96.1929 94.9399 107.813 109.274 107.813Z" fill="#178F4D"/>
<path d="M89.8197 39.0868C89.7914 39.0981 89.7632 39.1094 89.7349 39.1235C89.636 39.1631 89.5371 39.2027 89.441 39.2451C89.4043 39.2592 89.3704 39.2733 89.3364 39.2874C89.2064 39.3411 89.0793 39.3948 88.9493 39.4485C88.661 39.57 88.3728 39.6944 88.0873 39.8244C88.0845 39.8244 88.0845 39.8244 88.0845 39.8272C87.9404 39.8922 87.7963 39.9544 87.6521 40.0222C87.313 40.1748 86.9795 40.3331 86.6489 40.497C86.5161 40.5592 86.3861 40.6242 86.2561 40.6892C86.2137 40.7118 86.1685 40.7315 86.1261 40.7542C86.0272 40.805 85.9254 40.8531 85.8265 40.9039C85.77 40.9322 85.7135 40.9605 85.6598 40.9887C85.527 41.0565 85.397 41.1244 85.267 41.1922C85.2641 41.1922 85.2585 41.195 85.2557 41.1978C85.1059 41.277 84.9561 41.3561 84.8063 41.4381C84.7611 41.4607 84.7159 41.4861 84.6707 41.5115C84.4757 41.6161 84.2835 41.7207 84.0913 41.8309H84.0885C84.0235 41.8676 83.9613 41.9015 83.8963 41.9383C83.2379 42.3085 82.5907 42.6956 81.9577 43.0941C81.8107 43.1845 81.6666 43.2778 81.5225 43.3711C80.9714 43.7243 80.4288 44.0889 79.8975 44.4619C79.8212 44.5128 79.7477 44.5665 79.6743 44.6202C79.5979 44.671 79.5245 44.7247 79.451 44.7812C79.273 44.9084 79.0977 45.0356 78.9225 45.1656C78.6343 45.3804 78.3488 45.5951 78.0662 45.8156C77.9984 45.8693 77.9306 45.9201 77.8656 45.9738C77.7186 46.0869 77.5745 46.2027 77.4304 46.3186C77.405 46.3384 77.3795 46.3582 77.3513 46.3808C77.3286 46.3977 77.306 46.4175 77.2806 46.4373C77.1817 46.5164 77.0828 46.5984 76.9839 46.6803C76.8369 46.8019 76.69 46.9234 76.543 47.0477C76.3961 47.1692 76.2519 47.2936 76.1078 47.4179C75.9411 47.5621 75.7743 47.709 75.6104 47.8588C75.5059 47.9521 75.4041 48.0453 75.2996 48.1386C75.277 48.1555 75.2572 48.1781 75.2346 48.1951C75.1017 48.3166 74.9689 48.441 74.8361 48.5625C74.7061 48.684 74.5733 48.8083 74.4433 48.9327C74.3811 48.992 74.3189 49.0542 74.2539 49.1135C74.1522 49.2125 74.0505 49.3114 73.9487 49.4131C73.8357 49.5233 73.7255 49.6335 73.6152 49.7466C73.3496 50.015 73.0868 50.2863 72.8296 50.5605C72.5724 50.8346 72.3181 51.1116 72.0694 51.3913C71.8207 51.6711 71.5749 51.9537 71.3318 52.2391C71.2103 52.3804 71.0916 52.5246 70.9701 52.6687C70.8514 52.8128 70.7327 52.9569 70.6168 53.1039C70.5123 53.2339 70.4077 53.3639 70.306 53.4967C70.2777 53.5335 70.2495 53.5674 70.224 53.6013C70.1223 53.7285 70.0234 53.8584 69.9273 53.9856C69.8199 54.1269 69.7125 54.2682 69.6079 54.4123C69.4356 54.6441 69.266 54.8786 69.0993 55.1132C69.0201 55.2262 68.941 55.3365 68.8619 55.4495C68.7714 55.5795 68.681 55.7123 68.5906 55.8451C68.5482 55.9101 68.503 55.9751 68.4577 56.043C68.3447 56.2097 68.2345 56.3764 68.1271 56.5432C68.0875 56.6053 68.0451 56.6675 68.0056 56.7325C67.9717 56.7834 67.9378 56.8371 67.9067 56.888C67.8501 56.9756 67.7936 57.0632 67.7428 57.1508C67.4376 57.6368 67.1465 58.1286 66.8639 58.626C66.7734 58.787 66.683 58.9453 66.5954 59.1092C66.5078 59.2703 66.4202 59.4314 66.3326 59.5953C66.2478 59.7564 66.163 59.9203 66.0782 60.0842C66.033 60.1718 65.9878 60.2594 65.9454 60.347C65.9058 60.4233 65.8691 60.5024 65.8295 60.5787C65.7476 60.7427 65.6685 60.9094 65.5893 61.0761C65.5526 61.1524 65.5159 61.2287 65.4791 61.3079C65.4424 61.3842 65.4085 61.4633 65.3717 61.5396C65.2163 61.8731 65.0665 62.2122 64.9224 62.5485C64.8659 62.6785 64.8122 62.8085 64.7585 62.9385C64.7274 63.0148 64.6935 63.0911 64.6652 63.1702C64.6143 63.2946 64.5635 63.4217 64.5126 63.5489C64.507 63.5602 64.5041 63.5715 64.4985 63.5828C64.4307 63.7524 64.3657 63.9248 64.3007 64.0972C64.2978 64.1028 64.295 64.1085 64.295 64.1141C64.2272 64.2893 64.165 64.4674 64.1 64.6426C63.9757 64.9902 63.8541 65.3406 63.7383 65.6939C63.6987 65.8126 63.6592 65.9341 63.6224 66.0528C63.5828 66.1743 63.5433 66.2958 63.5065 66.4201C63.467 66.5417 63.4302 66.666 63.3963 66.7904C63.3483 66.9571 63.2974 67.1267 63.2522 67.2934C63.1957 67.494 63.142 67.6975 63.0883 67.901C63.0487 68.0592 63.0092 68.2175 62.9696 68.3729C62.8537 68.8392 62.7492 69.3055 62.6503 69.7775C62.6163 69.9357 62.5853 70.094 62.557 70.2522C62.5287 70.3992 62.5005 70.5462 62.475 70.6959C62.4694 70.727 62.4637 70.7553 62.4581 70.7864C62.4383 70.8909 62.4214 70.9983 62.4044 71.1029C62.3564 71.3798 62.314 71.6568 62.2744 71.9366C62.2546 72.0779 62.2348 72.2192 62.215 72.3633C62.2066 72.4226 62.1981 72.482 62.1924 72.5413C62.1783 72.6459 62.1642 72.7476 62.1529 72.8522C62.1529 72.8578 62.1501 72.8663 62.1501 72.872C62.1387 72.9681 62.1274 73.0641 62.1161 73.1602C62.1161 73.1631 62.1161 73.1659 62.1161 73.1687C62.1133 73.18 62.1133 73.1913 62.1133 73.2026C62.0879 73.4343 62.0653 73.6633 62.0427 73.895C62.0314 74.0052 62.0229 74.1154 62.0144 74.2285C62.0087 74.3019 62.0031 74.3754 61.9974 74.4517C61.9918 74.528 61.9861 74.6015 61.9805 74.675C61.9692 74.8248 61.9607 74.9745 61.9522 75.1243C61.9409 75.3023 61.9324 75.4832 61.924 75.6613C61.9183 75.8195 61.9098 75.9806 61.907 76.1389C61.907 76.2067 61.9042 76.2745 61.9014 76.3423C61.8985 76.4102 61.8985 76.478 61.8985 76.5458C61.8957 76.6504 61.8957 76.7549 61.8929 76.8623C61.8929 77.0036 61.8901 77.1449 61.8901 77.2862C61.8901 77.5038 61.8901 77.7214 61.8929 77.939C61.8929 78.0436 61.8929 78.1482 61.8957 78.2527C61.8957 78.4166 61.8985 78.5834 61.9042 78.7473C61.907 78.9338 61.9127 79.1175 61.9183 79.304C61.9183 79.3549 61.9211 79.4058 61.9211 79.4566C61.924 79.5753 61.9296 79.6912 61.9353 79.807C61.9381 79.9286 61.9438 80.0473 61.9494 80.166V80.1744C61.9494 80.1829 61.9494 80.1914 61.9494 80.1999C61.9579 80.4062 61.9692 80.6125 61.9805 80.8159C61.9833 80.8951 61.989 80.9714 61.9946 81.0477C62.0031 81.2285 62.0144 81.4094 62.0285 81.5874C62.037 81.7457 62.0483 81.9011 62.0624 82.0566L61.4464 82.4268L54.9182 86.355L60.9942 58.5553L61.404 56.6845L62.4524 51.8859L62.5344 51.5128L63.2663 48.1583L75.1583 38.1118L86.9032 37.2697C87.9291 37.7755 88.9691 38.4651 89.8197 39.0868Z" fill="#0A8243"/>
<path d="M83.9839 130.071C84.3739 130.514 84.7611 130.953 85.1511 131.385L82.229 133.603L70.1505 132.88L67.6834 108.607L68.3193 106.222C68.3588 106.307 68.3956 106.389 68.4323 106.473C68.469 106.553 68.503 106.629 68.5397 106.708C68.6838 107.022 68.828 107.333 68.9777 107.643C69.0399 107.776 69.1049 107.912 69.1699 108.045C69.2434 108.195 69.314 108.344 69.3875 108.494C69.461 108.644 69.5345 108.794 69.6079 108.943C69.6814 109.09 69.7521 109.234 69.8255 109.381C69.899 109.528 69.9725 109.673 70.046 109.819C70.1986 110.119 70.354 110.419 70.5094 110.713C70.6818 111.04 70.857 111.368 71.0323 111.693C71.1396 111.894 71.2499 112.092 71.3572 112.289C71.3855 112.343 71.4138 112.397 71.4449 112.451C71.4703 112.496 71.4929 112.538 71.5183 112.583C71.5183 112.583 71.5183 112.586 71.5212 112.586C71.6625 112.841 71.8066 113.095 71.9507 113.349C72.0977 113.609 72.2475 113.866 72.3944 114.124C72.6035 114.482 72.8155 114.838 73.0274 115.192C73.1348 115.37 73.2394 115.545 73.3468 115.72C73.4542 115.895 73.5615 116.071 73.6689 116.246C73.8244 116.495 73.9798 116.746 74.1381 116.995C74.2963 117.243 74.4517 117.489 74.6128 117.735C74.7626 117.97 74.9152 118.201 75.0678 118.433C75.0933 118.473 75.1187 118.512 75.1441 118.549C75.2883 118.764 75.4296 118.981 75.5765 119.193C75.7545 119.462 75.9354 119.725 76.1163 119.99C76.2717 120.216 76.4271 120.44 76.5826 120.663C76.6165 120.711 76.6476 120.759 76.6815 120.804C76.7578 120.912 76.8341 121.022 76.9104 121.129C77.6649 122.2 78.4336 123.243 79.2136 124.263C79.3577 124.455 79.5047 124.645 79.6516 124.831C79.7449 124.953 79.841 125.072 79.9342 125.193C80.3129 125.679 80.6944 126.157 81.0788 126.632C81.254 126.849 81.432 127.067 81.6073 127.279C81.8135 127.533 82.0227 127.785 82.2318 128.033C82.4014 128.234 82.5709 128.435 82.7405 128.635C82.7631 128.663 82.7885 128.692 82.814 128.72C83.009 128.946 83.2011 129.172 83.3961 129.398C83.594 129.627 83.7889 129.85 83.9839 130.071Z" fill="#0A8243"/>
<path d="M151.057 108.014L151.06 108.022V108.025L148.96 131.111L135.522 132.818L134.279 131.622L134.084 131.436C140.165 124.744 146.202 116.568 150.616 107.104L150.769 107.42L151.057 108.014Z" fill="#0A8243"/>
<path d="M164.495 58.9142L158.665 83.1842L157.545 82.5766C157.687 80.8386 157.757 79.0723 157.757 77.2834C157.757 66.5897 153.199 56.8286 145.696 49.4131C145.261 48.9836 144.817 48.5625 144.365 48.1499C140.148 44.3065 135.104 41.1696 129.483 38.9512C129.336 38.8918 129.189 38.8353 129.039 38.7759C130.546 37.6936 132.154 36.9164 133.137 36.4869C133.146 36.484 133.154 36.4784 133.162 36.4756C133.211 36.4529 133.259 36.4332 133.309 36.4134C133.422 36.3653 133.521 36.3229 133.612 36.2862C133.666 36.2636 133.722 36.241 133.776 36.2184C133.846 36.1901 133.906 36.1675 133.951 36.1506C133.965 36.1449 133.982 36.1393 133.993 36.1336C134.022 36.1223 134.047 36.1138 134.072 36.1025L152.507 43.6876L164.495 58.9142Z" fill="#0A8243"/>
<path d="M86.9032 37.2697C83.4809 35.1275 79.6206 34.811 75.4861 36.0206C70.7864 37.394 66.9458 40.2794 63.6902 43.8204C54.3757 53.9489 47.0167 65.3802 41.5342 77.9984C39.7849 82.0283 38.4877 86.2193 38.5725 90.6788C38.6347 93.957 39.4712 94.5872 42.3537 93.1063C46.5815 90.9388 50.7583 88.6638 54.9154 86.355C56.9163 85.2443 58.9114 84.1252 60.9038 83.0061C61.1073 82.8931 61.2881 82.6811 61.4407 82.4268C61.7035 81.9831 61.8759 81.4038 61.8985 80.9459C61.9127 80.686 61.9268 80.4288 61.9438 80.1716V80.1631C61.9381 80.0416 61.9325 79.9229 61.9296 79.8042C61.924 79.6884 61.9211 79.5697 61.9155 79.4538C61.9155 79.4029 61.9127 79.3521 61.9127 79.3012C61.907 79.1175 61.9014 78.931 61.8985 78.7445C61.8957 78.5806 61.8929 78.4138 61.8901 78.2499C61.8872 78.1454 61.8872 78.0408 61.8872 77.9362C61.8844 77.7186 61.8844 77.501 61.8844 77.2834C61.8844 77.1421 61.8844 77.0008 61.8872 76.8595C61.8872 76.7549 61.8901 76.6504 61.8929 76.543C61.8929 76.4752 61.8929 76.4073 61.8957 76.3395C61.8957 76.2717 61.8985 76.2039 61.9014 76.136C61.9042 75.975 61.9127 75.8167 61.9183 75.6584C61.924 75.4776 61.9353 75.2995 61.9466 75.1215C61.9551 74.9717 61.9635 74.8219 61.9748 74.6722C61.9777 74.5987 61.9833 74.5224 61.9918 74.4489C61.9975 74.3726 62.0031 74.2991 62.0088 74.2257C62.0172 74.1126 62.0257 74.0024 62.037 73.8922C62.0568 73.6604 62.0794 73.4287 62.1077 73.1998C62.1077 73.1885 62.1077 73.1772 62.1105 73.1659C62.1105 73.1631 62.1105 73.1602 62.1105 73.1574C62.119 73.0613 62.1303 72.9624 62.1444 72.8692C62.1444 72.8635 62.1444 72.855 62.1472 72.8494C62.1585 72.7448 62.1727 72.6431 62.1868 72.5385C62.1924 72.4792 62.2009 72.4198 62.2094 72.3605C62.2264 72.2192 62.249 72.0779 62.2687 71.9337C62.3083 71.654 62.3507 71.377 62.3987 71.1001C62.4157 70.9955 62.4355 70.8881 62.4524 70.7835C62.4553 70.7525 62.4609 70.7214 62.4694 70.6931C62.4948 70.5433 62.5231 70.3964 62.5514 70.2494C62.5824 70.0912 62.6135 69.9329 62.6446 69.7747C62.7407 69.3027 62.8453 68.8364 62.964 68.3701C63.0035 68.2119 63.0431 68.0536 63.0826 67.8982C63.1363 67.6947 63.19 67.4912 63.2466 67.2906C63.2918 67.1238 63.3426 66.9543 63.3907 66.7875C63.4274 66.6632 63.4642 66.5417 63.5009 66.4173C63.5376 66.2958 63.5772 66.1743 63.6168 66.0499C63.6535 65.9284 63.6931 65.8097 63.7326 65.691C63.8485 65.3378 63.9672 64.9874 64.0944 64.6398C64.1594 64.4645 64.2215 64.2865 64.2894 64.1113C64.2894 64.1056 64.2922 64.1 64.295 64.0943C64.36 63.922 64.425 63.7524 64.4928 63.58C64.4957 63.5687 64.5013 63.5574 64.507 63.5461C64.555 63.4189 64.6059 63.2946 64.6596 63.1674C64.6907 63.0883 64.7217 63.012 64.7528 62.9357C64.8065 62.8057 64.863 62.6757 64.9167 62.5457C65.0609 62.2066 65.2106 61.8703 65.3661 61.5368C65.4028 61.4605 65.4367 61.3813 65.4735 61.305C65.5102 61.2259 65.5469 61.1496 65.5837 61.0733C65.6628 60.9066 65.7448 60.7427 65.8239 60.5759C65.8635 60.4968 65.9002 60.4205 65.9398 60.3442C65.9822 60.2566 66.0274 60.169 66.0726 60.0814C66.1574 59.9175 66.2421 59.7536 66.3269 59.5925C66.4145 59.4286 66.5021 59.2675 66.5898 59.1064C66.6774 58.9453 66.7678 58.7842 66.8582 58.6231C67.138 58.1258 67.4319 57.634 67.7371 57.148C67.7908 57.0604 67.8473 56.9727 67.901 56.8851C67.9321 56.8343 67.966 56.7834 67.9999 56.7297C68.0395 56.6675 68.0791 56.6054 68.1215 56.5404C68.2288 56.3736 68.3391 56.2069 68.4521 56.0402C68.4945 55.9752 68.5397 55.9102 68.5849 55.8423C68.6725 55.7095 68.763 55.5795 68.8562 55.4467C68.9354 55.3336 69.0117 55.2234 69.0936 55.1104C69.2603 54.8758 69.4299 54.6413 69.6023 54.4095C69.7069 54.2654 69.8142 54.1241 69.9216 53.9828C70.0177 53.8556 70.1166 53.7256 70.2184 53.5985C70.2438 53.5617 70.2721 53.5278 70.3003 53.4939C70.4021 53.3639 70.5066 53.2311 70.6112 53.1011C70.7271 52.957 70.8457 52.8128 70.9644 52.6659C71.0831 52.5218 71.2047 52.3776 71.3262 52.2363C71.5664 51.9509 71.8123 51.6683 72.0638 51.3885C72.3125 51.1087 72.5668 50.8318 72.824 50.5577C73.0811 50.2835 73.344 50.0122 73.6096 49.7438C73.7198 49.6307 73.8329 49.5205 73.9431 49.4103C74.0448 49.3086 74.1466 49.2096 74.2483 49.1107C74.3105 49.0486 74.3726 48.9892 74.4376 48.9299C74.5676 48.8055 74.6976 48.6812 74.8305 48.5597C74.9633 48.4381 75.0961 48.3138 75.2289 48.1923C75.2487 48.1725 75.2713 48.1527 75.2939 48.1358C75.3957 48.0425 75.5002 47.9492 75.6048 47.856C75.7687 47.7062 75.9354 47.5621 76.1022 47.4151C76.2463 47.2908 76.3904 47.1664 76.5374 47.0449C76.6843 46.9206 76.8285 46.799 76.9782 46.6775C77.0771 46.5956 77.1761 46.5164 77.275 46.4345C77.2976 46.4147 77.3202 46.3949 77.3456 46.378C77.371 46.3554 77.3965 46.3356 77.4247 46.3158C77.5152 46.166 77.6113 46.0219 77.713 45.8806C77.9702 45.533 78.4619 45.3323 78.9169 45.1599C79.0921 45.03 79.2673 44.9028 79.4454 44.7756C79.5188 44.7219 79.5951 44.6682 79.6686 44.6145C79.7421 44.5608 79.8184 44.5071 79.8919 44.4563C80.4232 44.0804 80.9658 43.7187 81.5168 43.3654C81.661 43.2722 81.8051 43.1789 81.952 43.0885C82.5879 42.69 83.2351 42.3057 83.8907 41.9326C83.9557 41.8959 84.0179 41.8591 84.0829 41.8252H84.0857C84.2779 41.7178 84.47 41.6105 84.665 41.5059C84.7102 41.4805 84.7555 41.455 84.8007 41.4324C84.9505 41.3505 85.1002 41.2713 85.25 41.1922C85.2528 41.1894 85.2585 41.1866 85.2613 41.1866C85.3913 41.1187 85.5213 41.0509 85.6541 40.9831C85.7107 40.952 85.7672 40.9237 85.8209 40.8983C85.9198 40.8474 86.0215 40.7994 86.1204 40.7485C86.1628 40.7259 86.2052 40.7061 86.2504 40.6835C86.3804 40.6213 86.5104 40.5563 86.6432 40.4913C86.9739 40.3303 87.3102 40.172 87.6465 40.0166C87.7878 39.9488 87.9319 39.8866 88.0789 39.8216C88.0789 39.8216 88.0789 39.8187 88.0817 39.8187C88.4632 39.5701 88.8447 39.3185 89.2291 39.0642C88.4802 38.369 87.703 37.7671 86.9032 37.2697ZM61.5227 58.9086C61.3362 58.886 61.1609 58.7447 60.997 58.5553C60.771 58.3038 60.5562 57.9675 60.3301 57.7245C60.689 57.391 61.0338 56.8512 61.4068 56.6845C61.469 56.6534 61.5312 56.6364 61.5962 56.6308C62.0229 56.5969 62.4977 57.2243 63.2692 57.7951C62.4581 58.3434 61.9494 58.9594 61.5227 58.9086ZM63.3681 53.3385C62.9781 52.6913 62.5344 52.2278 62.4524 51.8887C62.4383 51.8237 62.4355 51.7644 62.4496 51.7079C62.4637 51.6429 62.4948 51.5807 62.5344 51.5157C62.7463 51.1766 63.255 50.8572 63.6394 50.795C63.8881 50.7555 64.5267 51.4705 64.4957 51.7955C64.4533 52.2278 63.9305 52.615 63.3681 53.3385ZM69.1332 49.4272C68.5934 48.7264 68.0112 48.2968 68.0395 47.9125C68.0678 47.5169 68.681 46.8923 69.0597 46.8753C69.4214 46.8584 70.0658 47.4688 70.1138 47.8616C70.1647 48.246 69.6164 48.7038 69.1332 49.4272ZM73.1913 50.1338C72.742 49.3509 72.2757 48.896 72.2983 48.4664C72.3153 48.1386 73.0274 47.531 73.2874 47.596C73.7311 47.709 74.3274 48.2347 74.3613 48.6303C74.3952 48.9977 73.7792 49.4244 73.1913 50.1338ZM74.0052 46.0869C73.5107 46.0869 72.5809 45.256 72.629 44.8971C72.7053 44.3065 73.3496 43.4756 73.8866 43.3569C74.3755 43.2495 75.0452 43.9532 76.1954 44.6287C75.113 45.3945 74.5563 46.0897 74.0052 46.0869ZM79.9738 42.1615C79.2136 42.04 78.1708 41.1272 78.0323 40.3981C77.908 39.7453 78.8378 38.8918 79.3041 38.126C79.6177 38.1231 79.9314 38.1175 80.2451 38.1118C80.7425 38.8636 81.6497 39.6322 81.6186 40.3614C81.5931 41.0283 80.4571 42.2378 79.9738 42.1615Z" fill="white"/>
<path d="M179.812 88.271C179.023 85.0465 178.455 81.7118 177.212 78.6625C172.105 66.1488 164.681 55.0454 155.85 44.8773C152.919 41.503 149.44 38.7279 145.314 36.8655C141.389 35.0936 137.489 34.8619 134.067 36.1053C134.039 36.1138 134.013 36.1251 133.988 36.1364C133.976 36.1421 133.959 36.1449 133.945 36.1534C133.9 36.1703 133.841 36.1929 133.77 36.2212C133.716 36.2438 133.66 36.2636 133.606 36.289C133.519 36.3258 133.417 36.3681 133.304 36.4162C133.256 36.436 133.208 36.4558 133.157 36.4784C133.148 36.4812 133.14 36.484 133.131 36.4897C131.823 37.086 130.596 37.9083 129.477 38.954C135.098 41.1696 140.143 44.3093 144.359 48.1527C144.611 47.8786 145.043 47.6468 145.365 47.6157C145.639 47.5903 146.267 48.3025 146.222 48.6077C146.182 48.8733 145.979 49.1135 145.69 49.4159C153.196 56.8314 157.752 66.5925 157.752 77.2862C157.752 79.0751 157.678 80.8414 157.54 82.5794C157.54 82.6133 157.537 82.6444 157.534 82.6754C157.526 82.7715 157.517 82.8704 157.509 82.9665C163.768 86.4425 170.022 89.9299 176.392 93.1968C178.995 94.5306 179.702 93.9457 179.925 91.0009C179.998 90.0938 180.027 89.1386 179.812 88.271ZM161.499 60.867C161.143 60.9546 160.632 60.4205 159.837 59.9514C160.561 59.4003 160.948 58.8888 161.369 58.8577C161.711 58.8323 162.432 59.4427 162.392 59.6716C162.313 60.1294 161.895 60.7681 161.499 60.867ZM139.272 42.5769C138.962 42.5939 138.648 42.6108 138.337 42.625C137.814 41.8733 136.884 41.1159 136.893 40.3698C136.901 39.7226 137.944 38.6148 138.577 38.5781C139.216 38.5414 140.383 39.522 140.459 40.1607C140.55 40.9096 139.708 41.7687 139.272 42.5769ZM144.39 46.0671C143.93 46.0388 143.09 45.1288 143.169 44.7841C143.305 44.2047 144.003 43.4191 144.529 43.3682C145.037 43.3174 145.622 44.086 146.657 44.8491C145.566 45.4764 144.958 46.101 144.39 46.0671ZM149.353 49.4329C148.87 48.6557 148.316 48.1583 148.398 47.8023C148.488 47.4038 149.121 46.9573 149.576 46.881C149.825 46.8414 150.452 47.5451 150.435 47.887C150.413 48.3109 149.895 48.7066 149.353 49.4329ZM154.05 51.9339C154.143 51.4846 154.592 50.8685 154.988 50.7894C155.355 50.7159 155.847 51.25 156.647 51.7361C155.872 52.2759 155.463 52.7704 155.027 52.7959C154.697 52.8128 154.004 52.1656 154.05 51.9339ZM156.986 58.9114C156.537 58.8718 155.824 58.1936 155.819 57.7894C155.816 57.3768 156.494 56.6788 156.941 56.6166C157.356 56.5601 157.865 57.179 158.662 57.7273C157.89 58.3094 157.41 58.9481 156.986 58.9114Z" fill="white"/>
<path d="M72.0694 124.478C71.4675 125.244 70.8147 125.719 70.8486 126.137C70.8825 126.569 71.5353 127.157 72.0157 127.273C72.304 127.344 73.0868 126.648 73.0953 126.284C73.1037 125.803 72.5753 125.309 72.0694 124.478ZM85.3376 131.278C84.5237 130.379 83.7098 129.452 82.9016 128.502C82.5851 128.132 82.2714 127.756 81.9577 127.378C81.4773 126.798 81.0025 126.21 80.5277 125.614C80.4203 125.478 80.3129 125.343 80.2084 125.207C80.0671 125.029 79.9258 124.848 79.7873 124.667C79.6516 124.495 79.5188 124.323 79.386 124.147C79.3493 124.102 79.3154 124.057 79.2814 124.012C79.1599 123.854 79.0412 123.695 78.9225 123.537C78.8349 123.424 78.7501 123.311 78.6654 123.195C78.3488 122.771 78.0323 122.342 77.7186 121.909C77.5434 121.666 77.3682 121.42 77.193 121.174C77.0178 120.929 76.8454 120.683 76.673 120.434L76.6702 120.431C76.5119 120.205 76.3537 119.976 76.1982 119.747C76.1672 119.705 76.1389 119.66 76.1078 119.617C75.9552 119.394 75.8054 119.174 75.6556 118.948C75.65 118.936 75.6415 118.925 75.633 118.914C75.4917 118.702 75.3504 118.487 75.2091 118.272C75.1526 118.187 75.0961 118.103 75.0396 118.015C74.7485 117.571 74.4602 117.119 74.1748 116.667C74.1494 116.627 74.1239 116.585 74.0985 116.545C73.9487 116.305 73.7989 116.065 73.6492 115.822C73.4994 115.579 73.3496 115.333 73.2027 115.087C73.1687 115.033 73.1377 114.983 73.1094 114.929C72.9992 114.748 72.8918 114.567 72.7844 114.384C72.7222 114.276 72.6601 114.172 72.5979 114.064C72.5131 113.923 72.4311 113.779 72.3492 113.635C72.1457 113.284 71.9451 112.931 71.7472 112.578C71.5946 112.309 71.4477 112.041 71.3007 111.769C71.1707 111.529 71.0407 111.289 70.9107 111.046C69.9951 109.526 69.119 107.98 68.2825 106.403C67.1295 110.588 66.098 114.644 65.5045 118.761C64.7217 124.218 64.5183 129.723 66.8921 134.926C68.7404 138.973 71.784 140.256 75.6613 138.088C79.0017 136.22 81.9888 133.728 85.3404 131.292C85.3404 131.28 85.3404 131.278 85.3376 131.278Z" fill="white"/>
<path d="M151.06 108.022L151.057 108.014C150.981 107.773 150.904 107.539 150.828 107.299C150.788 107.174 150.746 107.05 150.707 106.923C150.678 106.985 150.65 107.044 150.619 107.106C146.205 116.571 140.165 124.747 134.087 131.439C134.084 131.444 134.078 131.447 134.073 131.453V131.456C134.138 131.515 134.202 131.577 134.267 131.636C134.697 132.038 135.112 132.433 135.525 132.818C136.396 133.634 137.24 134.414 138.134 135.132C139.501 136.232 140.948 137.277 142.488 138.108C147.519 140.832 151.159 139.541 152.806 134.089C153.694 131.145 154.069 127.943 154.067 124.857C154.061 119.208 152.874 113.725 151.06 108.022Z" fill="white"/>
<path d="M125.931 21.9187C125.837 28.4835 124.051 32.8639 120.276 35.3423C116.918 34.6132 113.417 34.2289 109.822 34.2289H109.786C109.616 34.2289 109.446 34.2317 109.277 34.2345C109.226 34.2317 109.172 34.2345 109.121 34.2373C108.938 34.2402 108.751 34.243 108.568 34.2458C108.373 34.2515 108.183 34.2571 107.988 34.2628C107.604 34.2769 107.225 34.2967 106.844 34.3193C106.83 34.3193 106.815 34.3193 106.801 34.3221C106.603 34.3334 106.406 34.3447 106.211 34.3617C106.016 34.3758 105.818 34.3928 105.623 34.4069C105.425 34.4239 105.23 34.4408 105.035 34.4606C104.84 34.4804 104.645 34.5002 104.453 34.5199C104.241 34.5426 104.026 34.568 103.814 34.5934C103.712 34.6076 103.611 34.6189 103.506 34.633C103.433 34.6415 103.359 34.6499 103.289 34.6612C103.19 34.6726 103.096 34.6839 103 34.7008C102.901 34.7149 102.808 34.7262 102.712 34.7432C102.517 34.7686 102.328 34.7997 102.136 34.8308C101.929 34.8619 101.723 34.8958 101.519 34.9297C101.469 34.9382 101.415 34.9467 101.364 34.9552C101.183 34.9862 101.005 35.0173 100.827 35.0541C100.785 35.0597 100.742 35.0682 100.7 35.0767C100.556 35.1021 100.412 35.1304 100.27 35.1586C99.9453 35.2208 99.6232 35.2886 99.301 35.3593C95.4717 32.8102 93.6885 28.2462 93.714 21.4241C93.7507 11.6885 102.311 0.0989191 109.531 0.00283417C117.012 -0.0989029 126.069 12.0078 125.931 21.9187Z" fill="white"/>
<path d="M58.3293 55.2573V61.8109L63.4698 58.8549L64.4957 51.7926L58.3293 55.2573Z" fill="white"/>
<path d="M102.882 184.557C105.662 188.632 108.387 192.625 111.402 197.045C108.271 197.045 105.493 197.101 102.721 196.988C102.271 196.969 101.765 196.259 101.429 195.77C99.5921 193.086 97.6959 190.432 96.0341 187.643C95.1355 186.136 94.104 185.475 92.3744 185.664C91.2299 185.789 90.0627 185.687 88.6497 185.687C88.6497 189.57 88.6497 193.204 88.6497 196.952C86.0017 196.952 83.6081 196.952 81.0505 196.952C81.0505 185.266 81.0505 173.62 81.0505 161.957C87.5391 161.957 93.9853 161.601 100.372 162.067C105.838 162.466 109.305 166.086 110.068 170.828C111.057 176.974 109.15 181.089 104.02 183.893C103.667 184.085 103.322 184.297 102.882 184.557ZM88.6752 168.943C88.6752 170.743 88.6752 172.328 88.6752 173.911C88.6752 175.53 88.6752 177.15 88.6752 179.037C92.2727 178.868 95.5226 178.927 98.7076 178.498C101.211 178.161 102.591 175.982 102.446 173.538C102.297 171.023 100.773 169.169 98.1989 168.997C95.127 168.782 92.0268 168.943 88.6752 168.943Z" fill="#010202"/>
<path d="M216.824 190.017C216.824 192.467 216.824 194.592 216.824 196.895C207.987 196.895 199.17 196.895 190.197 196.895C190.197 185.272 190.197 173.671 190.197 161.917C198.921 161.917 207.611 161.917 216.463 161.917C216.463 164.076 216.463 166.238 216.463 168.64C210.259 168.64 204.13 168.64 197.89 168.64C197.89 171.068 197.89 173.258 197.89 175.737C203.307 175.737 208.733 175.737 214.278 175.737C214.278 178.136 214.278 180.255 214.278 182.635C208.863 182.635 203.44 182.635 197.896 182.635C197.896 185.209 197.896 187.524 197.896 190.019C204.164 190.017 210.375 190.017 216.824 190.017Z" fill="#010202"/>
<path d="M62.2066 161.858C64.9506 161.858 67.3612 161.858 70.0488 161.858C70.0488 162.686 70.0573 163.424 70.0488 164.161C69.964 171.011 70.2184 177.89 69.6984 184.709C69.0992 192.594 63.9954 197.164 56.0119 197.52C53.5646 197.63 50.9872 197.381 48.6445 196.7C42.8624 195.019 40.0985 190.7 39.392 184.918C39.2592 183.822 39.279 182.706 39.279 181.598C39.2705 175.095 39.2733 168.595 39.2733 161.929C41.845 161.929 44.2839 161.929 47.0195 161.929C47.0195 162.765 47.0138 163.571 47.0195 164.373C47.0591 170.605 46.9319 176.842 47.189 183.064C47.3897 187.931 50.4616 190.627 54.9098 190.418C59.4653 190.203 62.1077 187.428 62.1755 182.539C62.2603 176.446 62.2009 170.35 62.2066 164.254C62.2066 163.511 62.2066 162.765 62.2066 161.858Z" fill="#010202"/>
<path d="M20.2739 196.98C17.4705 196.98 15.0684 196.98 12.4204 196.98C12.4204 187.665 12.4204 178.43 12.4204 168.994C8.7494 168.994 5.31577 168.994 1.72672 168.994C1.72672 166.558 1.72672 164.314 1.72672 161.914C11.4059 161.914 21.0511 161.914 30.8122 161.914C30.8122 164.218 30.8122 166.408 30.8122 168.816C27.3531 168.816 23.928 168.816 20.2739 168.816C20.2739 178.28 20.2739 187.524 20.2739 196.98Z" fill="#010202"/>
<path d="M128.511 168.886C124.744 168.886 121.378 168.886 117.888 168.886C117.888 166.481 117.888 164.243 117.888 161.883C127.587 161.883 137.17 161.883 146.889 161.883C146.889 164.189 146.889 166.43 146.889 168.869C143.407 168.869 139.979 168.869 136.333 168.869C136.333 178.297 136.333 187.535 136.333 196.923C133.666 196.923 131.213 196.923 128.511 196.923C128.511 187.648 128.511 178.416 128.511 168.886Z" fill="#010202"/>
<path d="M156.017 161.858C158.54 161.858 160.951 161.858 163.63 161.858C163.63 171.164 163.63 180.467 163.63 189.949C169.55 189.949 175.208 189.949 181.05 189.949C181.05 192.354 181.05 194.583 181.05 196.946C172.744 196.946 164.464 196.946 156.017 196.946C156.017 185.297 156.017 173.705 156.017 161.858Z" fill="#010202"/>
<path d="M49.1701 226.009C48.393 226.009 47.8362 225.89 47.4914 225.658C47.1495 225.424 46.9319 225.116 46.8415 224.737C46.751 224.358 46.7058 223.951 46.7058 223.519V209.53C46.7058 209.135 46.7425 208.745 46.8132 208.366C46.8838 207.987 47.093 207.676 47.4349 207.433C47.7769 207.19 48.3647 207.077 49.1927 207.094H53.8472C55.1274 207.094 56.3369 207.337 57.473 207.823C58.609 208.309 59.6151 208.982 60.4912 209.838C61.3644 210.695 62.0511 211.692 62.5485 212.828C63.0431 213.964 63.2918 215.174 63.2918 216.454C63.2918 217.771 63.0431 219.006 62.5485 220.162C62.0511 221.318 61.3672 222.332 60.4912 223.205C59.6151 224.081 58.6062 224.765 57.4617 225.263C56.3171 225.76 55.085 226.006 53.7681 226.006H49.1701V226.009ZM51.657 221.058H53.8472C54.6583 221.058 55.4072 220.854 56.0939 220.45C56.7778 220.043 57.326 219.503 57.7301 218.828C58.1371 218.152 58.3377 217.398 58.3377 216.57C58.3377 215.739 58.1343 214.982 57.7301 214.298C57.3232 213.614 56.7778 213.066 56.0939 212.661C55.4072 212.255 54.6498 212.054 53.8217 212.054H51.657V221.058Z" fill="#010202"/>
<path d="M74.6298 226.334C73.2761 226.334 72.1316 226.113 71.1933 225.67C70.2551 225.229 69.4977 224.649 68.9212 223.937C68.3447 223.225 67.9208 222.454 67.6495 221.623C67.3782 220.792 67.2425 219.989 67.2425 219.215C67.2425 217.791 67.559 216.536 68.1892 215.454C68.8194 214.371 69.6955 213.523 70.8146 212.91C71.9337 212.297 73.2139 211.992 74.658 211.992C75.7771 211.992 76.7323 212.173 77.5264 212.531C78.3205 212.893 78.9649 213.354 79.4623 213.911C79.9568 214.47 80.3242 215.066 80.5588 215.697C80.7933 216.33 80.9092 216.915 80.9092 217.454C80.9092 218.483 80.6577 219.266 80.1518 219.809C79.646 220.351 78.996 220.62 78.2047 220.62H72.4424C72.5131 220.908 72.6628 221.157 72.8889 221.363C73.115 221.569 73.3976 221.733 73.7424 221.849C74.0843 221.968 74.4545 222.024 74.853 222.024C75.2487 222.024 75.6019 222.002 75.9071 221.956C76.2123 221.911 76.4808 221.852 76.7041 221.781C76.9302 221.71 77.1364 221.637 77.3258 221.563C77.5151 221.493 77.6875 221.433 77.8401 221.388C77.9927 221.343 78.1425 221.32 78.2866 221.32C78.6116 221.32 78.9084 221.428 79.1797 221.645C79.451 221.863 79.694 222.185 79.9088 222.62C80.036 222.855 80.1264 223.075 80.1801 223.285C80.2338 223.491 80.262 223.686 80.262 223.867C80.262 224.409 80.0416 224.859 79.5979 225.22C79.1571 225.582 78.5212 225.856 77.6904 226.046C76.8567 226.241 75.8365 226.334 74.6298 226.334ZM72.4368 218.082H75.4663C75.7178 218.082 75.9043 218.028 76.0202 217.921C76.136 217.813 76.1954 217.649 76.1954 217.435C76.1954 217.2 76.1276 217.002 75.9919 216.838C75.8563 216.677 75.6726 216.553 75.438 216.474C75.2034 216.392 74.9237 216.352 74.5987 216.352C74.1663 216.352 73.7876 216.437 73.4626 216.609C73.1376 216.782 72.8889 216.997 72.7194 217.259C72.5498 217.519 72.4565 217.794 72.4368 218.082Z" fill="#010202"/>
<path d="M91.0264 226.037C90.1955 226.037 89.4721 226 88.8475 225.93C88.2258 225.856 87.6973 225.712 87.2649 225.497C86.8326 225.283 86.4793 224.969 86.2108 224.565C85.9395 224.158 85.7417 223.626 85.6145 222.968C85.4874 222.31 85.4252 221.484 85.4252 220.492V208.504C85.4252 208.089 85.4619 207.696 85.5326 207.329C85.6032 206.959 85.8124 206.653 86.1543 206.407C86.4963 206.164 87.0756 206.043 87.8867 206.043C88.6977 206.043 89.2714 206.164 89.6049 206.407C89.9384 206.651 90.1418 206.961 90.2125 207.34C90.2831 207.719 90.3199 208.117 90.3199 208.53V220.193C90.3199 220.464 90.3255 220.676 90.334 220.829C90.3425 220.981 90.3708 221.094 90.416 221.168C90.4612 221.241 90.5318 221.281 90.6336 221.289C90.7325 221.298 90.8738 221.303 91.0518 221.303C91.2864 221.303 91.5351 221.335 91.7951 221.397C92.0551 221.459 92.2811 221.648 92.4705 221.965C92.6598 222.281 92.7559 222.827 92.7559 223.601C92.7559 224.412 92.6627 224.991 92.4705 225.333C92.2811 225.675 92.0522 225.879 91.7809 225.941C91.5125 226.006 91.261 226.037 91.0264 226.037Z" fill="#010202"/>
<path d="M99.4395 210.994C98.6284 210.994 98.0491 210.873 97.7071 210.63C97.3652 210.387 97.1617 210.076 97.0995 209.697C97.0374 209.318 97.0063 208.931 97.0063 208.533C97.0063 208.117 97.043 207.724 97.1137 207.357C97.1843 206.987 97.3934 206.684 97.7354 206.45C98.0773 206.215 98.6567 206.099 99.4678 206.099C100.279 206.099 100.853 206.221 101.186 206.464C101.519 206.707 101.723 207.018 101.794 207.397C101.864 207.775 101.901 208.162 101.901 208.561C101.901 208.957 101.864 209.347 101.794 209.725C101.72 210.104 101.519 210.412 101.186 210.647C100.853 210.875 100.27 210.994 99.4395 210.994ZM99.4395 226.037C98.6284 226.037 98.0491 225.916 97.7071 225.673C97.3652 225.429 97.1617 225.119 97.0995 224.74C97.0374 224.361 97.0063 223.974 97.0063 223.576V214.756C97.0063 214.36 97.043 213.976 97.1137 213.605C97.1843 213.235 97.3934 212.93 97.7354 212.687C98.0773 212.444 98.6567 212.322 99.4678 212.322C100.279 212.322 100.853 212.444 101.186 212.687C101.519 212.93 101.723 213.241 101.794 213.62C101.864 213.998 101.901 214.397 101.901 214.809V223.604C101.901 224 101.864 224.389 101.794 224.768C101.72 225.147 101.519 225.455 101.186 225.689C100.853 225.918 100.27 226.037 99.4395 226.037Z" fill="#010202"/>
<path d="M113.807 226.173C113.301 226.173 112.863 226.074 112.496 225.876C112.126 225.678 111.843 225.381 111.642 224.983L106.852 215.863C106.457 215.089 106.329 214.439 106.473 213.916C106.618 213.393 107.104 212.933 107.935 212.537C108.782 212.122 109.449 211.978 109.935 212.105C110.421 212.232 110.865 212.746 111.261 213.648L113.804 219.438L116.348 213.648C116.763 212.71 117.212 212.187 117.701 212.079C118.187 211.972 118.846 212.125 119.677 212.54C120.525 212.955 121.011 213.427 121.138 213.961C121.265 214.493 121.138 215.129 120.759 215.869L115.969 224.989C115.771 225.384 115.491 225.684 115.13 225.882C114.771 226.074 114.33 226.173 113.807 226.173Z" fill="#010202"/>
<path d="M131.772 226.334C130.418 226.334 129.274 226.113 128.336 225.67C127.397 225.229 126.64 224.649 126.064 223.937C125.487 223.225 125.063 222.454 124.792 221.623C124.521 220.792 124.385 219.989 124.385 219.215C124.385 217.791 124.701 216.536 125.332 215.454C125.962 214.371 126.838 213.523 127.957 212.91C129.076 212.297 130.356 211.992 131.8 211.992C132.919 211.992 133.875 212.173 134.669 212.531C135.463 212.893 136.107 213.354 136.605 213.911C137.099 214.47 137.467 215.066 137.701 215.697C137.936 216.33 138.052 216.915 138.052 217.454C138.052 218.483 137.8 219.266 137.294 219.809C136.788 220.351 136.138 220.62 135.347 220.62H129.585C129.655 220.908 129.805 221.157 130.031 221.363C130.257 221.569 130.54 221.733 130.885 221.849C131.227 221.968 131.597 222.024 131.995 222.024C132.391 222.024 132.744 222.002 133.049 221.956C133.355 221.911 133.623 221.852 133.846 221.781C134.073 221.71 134.279 221.637 134.468 221.563C134.657 221.493 134.83 221.433 134.982 221.388C135.135 221.343 135.285 221.32 135.429 221.32C135.754 221.32 136.051 221.428 136.322 221.645C136.593 221.863 136.836 222.185 137.051 222.62C137.178 222.855 137.269 223.075 137.322 223.285C137.376 223.491 137.404 223.686 137.404 223.867C137.404 224.409 137.184 224.859 136.74 225.22C136.299 225.582 135.664 225.856 134.833 226.046C133.999 226.241 132.982 226.334 131.772 226.334ZM129.582 218.082H132.611C132.863 218.082 133.049 218.028 133.165 217.921C133.281 217.813 133.341 217.649 133.341 217.435C133.341 217.2 133.273 217.002 133.137 216.838C133.001 216.677 132.818 216.553 132.583 216.474C132.349 216.392 132.069 216.352 131.744 216.352C131.311 216.352 130.933 216.437 130.608 216.609C130.283 216.782 130.034 216.997 129.865 217.259C129.695 217.519 129.599 217.794 129.582 218.082Z" fill="#010202"/>
<path d="M144.868 226.037C144.057 226.037 143.477 225.916 143.136 225.673C142.794 225.429 142.59 225.113 142.528 224.726C142.466 224.339 142.432 223.946 142.432 223.547V214.727C142.432 214.312 142.469 213.919 142.539 213.549C142.61 213.179 142.819 212.876 143.161 212.642C143.503 212.407 144.079 212.291 144.893 212.291C145.687 212.291 146.25 212.399 146.583 212.616C146.917 212.834 147.12 213.071 147.191 213.334C147.262 213.597 147.298 213.798 147.298 213.942L146.866 213.781C147.154 213.456 147.44 213.184 147.719 212.97C147.999 212.752 148.333 212.563 148.72 212.402C149.107 212.24 149.545 212.158 150.031 212.158C150.192 212.158 150.396 212.173 150.639 212.198C150.882 212.226 151.145 212.274 151.424 212.348C151.704 212.421 151.964 212.529 152.21 212.673C152.453 212.817 152.651 213.006 152.806 213.241C152.959 213.475 153.035 213.764 153.035 214.106C153.035 215.007 152.84 215.773 152.453 216.406C152.066 217.039 151.554 217.353 150.924 217.353C150.582 217.353 150.339 217.33 150.195 217.285C150.051 217.24 149.946 217.194 149.884 217.149C149.822 217.104 149.748 217.059 149.666 217.014C149.585 216.968 149.438 216.946 149.22 216.946C148.949 216.946 148.7 216.977 148.477 217.039C148.251 217.101 148.053 217.197 147.88 217.324C147.708 217.452 147.578 217.599 147.488 217.771C147.397 217.943 147.352 218.127 147.352 218.325V223.601C147.352 223.997 147.315 224.387 147.245 224.765C147.171 225.144 146.965 225.452 146.623 225.687C146.284 225.918 145.699 226.037 144.868 226.037Z" fill="#010202"/>
<path d="M163.78 225.63L157.339 215.889C156.87 215.168 156.681 214.569 156.771 214.089C156.862 213.611 157.294 213.128 158.071 212.642C158.919 212.119 159.572 211.915 160.032 212.034C160.493 212.153 160.965 212.58 161.454 213.32L165.837 219.95L163.78 225.63ZM161.59 231.585C160.705 231.189 160.191 230.751 160.047 230.273C159.902 229.796 160.018 229.168 160.397 228.394L166.973 213.676C167.352 212.828 167.759 212.322 168.191 212.161C168.624 212 169.29 212.099 170.192 212.458C171.057 212.854 171.568 213.28 171.721 213.73C171.873 214.182 171.78 214.784 171.435 215.541L164.806 230.395C164.444 231.243 164.043 231.751 163.602 231.924C163.164 232.093 162.491 231.98 161.59 231.585Z" fill="#010202"/>
<path d="M37.5325 219.02H1.2124" stroke="white" stroke-width="2.42575" stroke-miterlimit="10" stroke-linecap="square"/>
<path d="M215.406 219.02H179.088" stroke="white" stroke-width="2.42575" stroke-miterlimit="10" stroke-linecap="square"/>
</g>
<defs>
<clipPath id="clip0_34_319">
<rect width="216.824" height="232" fill="white"/>
</clipPath>
</defs>
</svg>
