<svg width="29" height="29" viewBox="0 0 29 29" fill="none" xmlns="http://www.w3.org/2000/svg">
<path fill-rule="evenodd" clip-rule="evenodd" d="M19.0289 10.7038C19.0289 11.9655 18.5277 13.1756 17.6355 14.0677C16.7434 14.9599 15.5333 15.4611 14.2716 15.4611C13.0099 15.4611 11.7999 14.9599 10.9078 14.0677C10.0156 13.1756 9.5144 11.9655 9.5144 10.7038C9.5144 9.44214 10.0156 8.23212 10.9078 7.33996C11.7999 6.4478 13.0099 5.94659 14.2716 5.94659C15.5333 5.94659 16.7434 6.4478 17.6355 7.33996C18.5277 8.23212 19.0289 9.44214 19.0289 10.7038ZM16.6503 10.7038C16.6503 11.3347 16.3997 11.9397 15.9536 12.3858C15.5075 12.8319 14.9025 13.0825 14.2716 13.0825C13.6408 13.0825 13.0358 12.8319 12.5897 12.3858C12.1436 11.9397 11.893 11.3347 11.893 10.7038C11.893 10.073 12.1436 9.46798 12.5897 9.0219C13.0358 8.57582 13.6408 8.32522 14.2716 8.32522C14.9025 8.32522 15.5075 8.57582 15.9536 9.0219C16.3997 9.46798 16.6503 10.073 16.6503 10.7038Z" fill="black"/>
<path fill-rule="evenodd" clip-rule="evenodd" d="M14.2715 1.18927C7.04644 1.18927 1.18909 7.04663 1.18909 14.2717C1.18909 21.4968 7.04644 27.3541 14.2715 27.3541C21.4966 27.3541 27.3539 21.4968 27.3539 14.2717C27.3539 7.04663 21.4966 1.18927 14.2715 1.18927ZM3.56771 14.2717C3.56771 16.7574 4.41569 19.0456 5.83692 20.8629C6.83527 19.5524 8.12295 18.4903 9.59947 17.7596C11.076 17.0289 12.7014 16.6493 14.3488 16.6503C15.9751 16.6484 17.5803 17.0179 19.042 17.7307C20.5037 18.4434 21.7834 19.4805 22.7834 20.763C23.8139 19.4114 24.5077 17.8339 24.8075 16.161C25.1073 14.4881 25.0044 12.7679 24.5073 11.1426C24.0103 9.51734 23.1333 8.03381 21.9491 6.81476C20.7649 5.5957 19.3074 4.67616 17.6972 4.13223C16.087 3.5883 14.3705 3.43561 12.6896 3.68679C11.0087 3.93798 9.41174 4.58581 8.03092 5.5767C6.6501 6.56759 5.52509 7.87305 4.74897 9.38505C3.97285 10.897 3.56792 12.5721 3.56771 14.2717ZM14.2715 24.9755C11.8143 24.9795 9.43118 24.1341 7.52574 22.5826C8.29262 21.4844 9.3135 20.5878 10.5015 19.969C11.6895 19.3503 13.0094 19.0278 14.3488 19.0289C15.6715 19.0278 16.9754 19.3423 18.1522 19.9463C19.329 20.5503 20.3446 21.4263 21.1148 22.5017C19.1946 24.1037 16.7722 24.9794 14.2715 24.9755Z" fill="black"/>
</svg>
