<svg width="29" height="32" viewBox="0 0 29 32" fill="none" xmlns="http://www.w3.org/2000/svg">
<path d="M2 15.8916C2 13.4761 2 12.2684 2.48736 11.2065C2.9765 10.1446 3.89253 9.36022 5.72636 7.78786L7.50505 6.26352C10.8223 3.42295 12.4765 2 14.4508 2C16.4252 2 18.0811 3.42117 21.3966 6.26174L23.1753 7.78608C25.0074 9.35844 25.9252 10.1428 26.4125 11.2047C26.9017 12.2666 26.9017 13.4743 26.9017 15.8898V23.4332C26.9017 26.7878 26.9017 28.4634 25.8594 29.5057C24.817 30.548 23.1415 30.548 19.7869 30.548H9.11476C5.76015 30.548 4.08463 30.548 3.04231 29.5057C2 28.4634 2 26.7878 2 23.4332V15.8916Z" stroke="black" stroke-width="2.24677"/>
<path d="M18.8978 30.548V21.6545C18.8978 21.1828 18.7105 20.7304 18.3769 20.3968C18.0433 20.0633 17.5909 19.8759 17.1192 19.8759H11.7831C11.3113 19.8759 10.8589 20.0633 10.5254 20.3968C10.1918 20.7304 10.0044 21.1828 10.0044 21.6545V30.548" stroke="black" stroke-width="2.24677" stroke-linecap="round" stroke-linejoin="round"/>
</svg>
