<svg width="63" height="63" viewBox="0 0 63 63" fill="none" xmlns="http://www.w3.org/2000/svg">
<path d="M43.6295 25.2614C43.6295 28.5181 42.3358 31.6414 40.033 33.9442C37.7302 36.247 34.6069 37.5407 31.3502 37.5407C28.0935 37.5407 24.9702 36.247 22.6673 33.9442C20.3645 31.6414 19.0708 28.5181 19.0708 25.2614C19.0708 22.0047 20.3645 18.8814 22.6673 16.5786C24.9702 14.2757 28.0935 12.982 31.3502 12.982C34.6069 12.982 37.7302 14.2757 40.033 16.5786C42.3358 18.8814 43.6295 22.0047 43.6295 25.2614Z" fill="#0A8243"/>
<path fill-rule="evenodd" clip-rule="evenodd" d="M30.0978 62.0749C13.7248 61.418 0.651855 47.9352 0.651855 31.4011C0.651855 14.4463 14.3955 0.702644 31.3503 0.702644C48.305 0.702644 62.0487 14.4463 62.0487 31.4011C62.0487 48.3558 48.305 62.0995 31.3503 62.0995H30.9297C30.6514 62.0995 30.3741 62.0913 30.0978 62.0749ZM11.6511 50.7718C11.4216 50.1126 11.3434 49.4102 11.4225 48.7168C11.5016 48.0233 11.7358 47.3566 12.1079 46.766C12.4799 46.1755 12.9801 45.6763 13.5715 45.3055C14.1628 44.9348 14.8301 44.702 15.5237 44.6244C27.4899 43.2998 35.2843 43.4195 47.1922 44.652C47.8867 44.7244 48.5556 44.9542 49.1479 45.3241C49.7402 45.6941 50.2403 46.1943 50.6101 46.7866C50.9798 47.379 51.2095 48.048 51.2817 48.7426C51.3538 49.4372 51.2665 50.139 51.0264 50.7948C56.1302 45.6313 58.9883 38.6612 58.9788 31.4011C58.9788 16.1424 46.6089 3.77249 31.3503 3.77249C16.0916 3.77249 3.7217 16.1424 3.7217 31.4011C3.7217 38.9467 6.74703 45.7863 11.6511 50.7718Z" fill="#0A8243"/>
</svg>
