<svg width="25" height="25" viewBox="0 0 25 25" fill="none" xmlns="http://www.w3.org/2000/svg">
<path d="M21.4888 8.18623C22.0316 8.18623 22.5521 8.40185 22.9359 8.78565C23.3197 9.16946 23.5354 9.69001 23.5354 10.2328V14.3259C23.5354 14.8687 23.3197 15.3892 22.9359 15.773C22.5521 16.1569 22.0316 16.3725 21.4888 16.3725H20.4021C20.1526 18.3508 19.1898 20.1701 17.6942 21.4889C16.1987 22.8077 14.2733 23.5354 12.2793 23.5354V21.4889C13.9076 21.4889 15.4693 20.842 16.6207 19.6906C17.7721 18.5392 18.419 16.9775 18.419 15.3492V9.20951C18.419 7.58117 17.7721 6.01951 16.6207 4.8681C15.4693 3.71669 13.9076 3.06983 12.2793 3.06983C10.6509 3.06983 9.08928 3.71669 7.93787 4.8681C6.78645 6.01951 6.1396 7.58117 6.1396 9.20951V16.3725H3.06975C2.52697 16.3725 2.00642 16.1569 1.62262 15.773C1.23881 15.3892 1.02319 14.8687 1.02319 14.3259V10.2328C1.02319 9.69001 1.23881 9.16946 1.62262 8.78565C2.00642 8.40185 2.52697 8.18623 3.06975 8.18623H4.15648C4.40619 6.20812 5.36915 4.38912 6.86466 3.07052C8.36018 1.75192 10.2855 1.02437 12.2793 1.02437C14.2731 1.02437 16.1984 1.75192 17.6939 3.07052C19.1894 4.38912 20.1524 6.20812 20.4021 8.18623H21.4888ZM7.94057 16.1525L9.02525 14.417C10.0005 15.0279 11.1285 15.3511 12.2793 15.3492C13.4301 15.3511 14.558 15.0279 15.5333 14.417L16.618 16.1525C15.3177 16.9671 13.8137 17.3981 12.2793 17.3958C10.7448 17.3982 9.24087 16.9672 7.94057 16.1525Z" fill="black"/>
</svg>
