<svg width="21" height="21" viewBox="0 0 21 21" fill="none" xmlns="http://www.w3.org/2000/svg">
<path d="M10.2608 20.9257C7.04287 20.9683 4.04447 19.5803 2.03691 17.203C1.97972 17.1356 1.93667 17.0574 1.91032 16.973C1.88397 16.8887 1.87487 16.7999 1.88354 16.7119C1.89221 16.624 1.91848 16.5386 1.9608 16.461C2.00312 16.3835 2.06061 16.3152 2.12985 16.2602C2.2708 16.1467 2.45042 16.0926 2.63062 16.1093C2.81081 16.126 2.97741 16.2123 3.09505 16.3498C3.97279 17.385 5.06938 18.2123 6.30568 18.7722C7.54198 19.3321 8.88716 19.6105 10.2441 19.5874C15.2731 19.5209 19.2979 15.4848 19.233 10.5734C19.168 5.66212 15.038 1.73376 10.009 1.80025C8.6323 1.81304 7.27618 2.1357 6.04125 2.74428C4.80632 3.35286 3.7243 4.23174 2.8755 5.31568C2.76349 5.45766 2.60061 5.55046 2.42136 5.57442C2.24211 5.59837 2.06058 5.55161 1.91522 5.44402C1.84395 5.39188 1.78388 5.32594 1.73859 5.25013C1.6933 5.17432 1.66371 5.09018 1.65157 5.0027C1.63944 4.91523 1.64501 4.82621 1.66795 4.74093C1.6909 4.65566 1.73075 4.57586 1.78514 4.50628C3.72525 2.01432 6.72526 0.505095 9.99027 0.46193C15.7785 0.385408 20.5283 4.90424 20.603 10.5553C20.6777 16.2064 16.048 20.8492 10.2608 20.9257ZM3.14691 13.6925L0.341535 10.9593C0.0699276 10.6958 0.0591447 10.2671 0.316596 10.0018L2.98616 7.26169C3.04876 7.19841 3.12326 7.14813 3.20536 7.11373C3.28747 7.07934 3.37556 7.06152 3.46458 7.0613C3.55359 7.06107 3.64178 7.07844 3.72405 7.11242C3.80633 7.14639 3.88108 7.1963 3.944 7.25926C4.00883 7.32045 4.0609 7.39386 4.09722 7.47526C4.13354 7.55667 4.15338 7.64446 4.15561 7.73357C4.15783 7.82268 4.14239 7.91135 4.11018 7.99447C4.07797 8.07758 4.02963 8.1535 3.96793 8.21784L2.40598 9.82165L12.9551 9.68218C13.0441 9.67965 13.1327 9.69475 13.2159 9.7266C13.299 9.75846 13.3751 9.80644 13.4396 9.86779C13.5041 9.92914 13.5559 10.0026 13.5919 10.0841C13.6279 10.1655 13.6475 10.2533 13.6495 10.3423C13.6544 10.7127 13.3514 11.0165 12.9728 11.0215L2.46564 11.1604L4.08085 12.7335C4.14552 12.7947 4.19746 12.868 4.23369 12.9493C4.26991 13.0306 4.28971 13.1183 4.29193 13.2073C4.29415 13.2963 4.27876 13.3849 4.24664 13.4679C4.21452 13.5509 4.1663 13.6267 4.10476 13.6911C4.04209 13.7543 3.96754 13.8045 3.8854 13.8388C3.80326 13.8731 3.71515 13.8908 3.62613 13.891C3.53711 13.8911 3.44895 13.8736 3.3667 13.8396C3.28446 13.8055 3.20976 13.7555 3.14691 13.6925Z" fill="white"/>
</svg>
